<svg width="22" height="23" viewBox="0 0 22 23" fill="none" xmlns="http://www.w3.org/2000/svg">
<path d="M20.97 17.6122C20.97 17.9722 20.89 18.3422 20.72 18.7022C20.55 19.0622 20.33 19.4022 20.04 19.7222C19.55 20.2622 19.01 20.6522 18.4 20.9022C17.8 21.1522 17.15 21.2822 16.45 21.2822C15.43 21.2822 14.34 21.0422 13.19 20.5522C12.04 20.0622 10.89 19.4022 9.75 18.5722C8.6 17.7322 7.51 16.8022 6.47 15.7722C5.44 14.7322 4.51 13.6422 3.68 12.5022C2.86 11.3622 2.2 10.2222 1.72 9.09223C1.24 7.95223 1 6.86223 1 5.82223C1 5.14223 1.12 4.49223 1.36 3.89223C1.6 3.28223 1.98 2.72223 2.51 2.22223C3.15 1.59223 3.85 1.28223 4.59 1.28223C4.87 1.28223 5.15 1.34223 5.4 1.46223C5.66 1.58223 5.89 1.76223 6.07 2.02223L8.39 5.29223C8.57 5.54223 8.7 5.77223 8.79 5.99223C8.88 6.20223 8.93 6.41223 8.93 6.60223C8.93 6.84223 8.86 7.08223 8.72 7.31223C8.59 7.54223 8.4 7.78223 8.16 8.02223L7.4 8.81223C7.29 8.92223 7.24 9.05223 7.24 9.21223C7.24 9.29223 7.25 9.36223 7.27 9.44223C7.3 9.52223 7.33 9.58223 7.35 9.64223C7.53 9.97223 7.84 10.4022 8.28 10.9222C8.73 11.4422 9.21 11.9722 9.73 12.5022C10.27 13.0322 10.79 13.5222 11.32 13.9722C11.84 14.4122 12.27 14.7122 12.61 14.8922C12.66 14.9122 12.72 14.9422 12.79 14.9722C12.87 15.0022 12.95 15.0122 13.04 15.0122C13.21 15.0122 13.34 14.9522 13.45 14.8422L14.21 14.0922C14.46 13.8422 14.7 13.6522 14.93 13.5322C15.16 13.3922 15.39 13.3222 15.64 13.3222C15.83 13.3222 16.03 13.3622 16.25 13.4522C16.47 13.5422 16.7 13.6722 16.95 13.8422L20.26 16.1922C20.52 16.3722 20.7 16.5822 20.81 16.8322C20.91 17.0822 20.97 17.3322 20.97 17.6122Z" stroke="white" stroke-width="2" stroke-miterlimit="10"/>
</svg>
