<svg width="21" height="22" viewBox="0 0 21 22" fill="none" xmlns="http://www.w3.org/2000/svg">
<g clip-path="url(#clip0_2348_10554)">
<path d="M17.7264 1.57153H4.10733C2.64066 1.57153 1.48828 2.72391 1.48828 4.19058V17.8096C1.48828 19.2763 2.64066 20.4287 4.10733 20.4287H17.7264C19.193 20.4287 20.3454 19.2763 20.3454 17.8096V4.19058C20.3454 2.72391 19.193 1.57153 17.7264 1.57153ZM19.2978 4.19058V10.4763H11.4407V2.61915H17.7264C18.5645 2.61915 19.2978 3.35249 19.2978 4.19058ZM4.10733 2.61915H10.393V10.4763H2.5359V4.19058C2.5359 3.35249 3.26923 2.61915 4.10733 2.61915ZM2.5359 17.8096V11.5239H10.393V19.3811H4.10733C3.26923 19.3811 2.5359 18.6477 2.5359 17.8096ZM17.7264 19.3811H11.4407V11.5239H19.2978V17.8096C19.2978 18.6477 18.5645 19.3811 17.7264 19.3811Z" fill="white"/>
<path d="M4.63074 7.12376H5.99265V8.48567C5.99265 8.79995 6.20217 9.00948 6.51646 9.00948C6.83074 9.00948 7.04027 8.79995 7.04027 8.48567V7.12376H8.40217C8.6117 7.12376 8.82122 6.80948 8.82122 6.59995C8.82122 6.39043 8.6117 6.07614 8.29741 6.07614H7.04027V4.71424C7.04027 4.39995 6.83074 4.19043 6.51646 4.19043C6.20217 4.19043 5.99265 4.39995 5.99265 4.71424V6.07614H4.63074C4.31646 6.07614 4.10693 6.28567 4.10693 6.59995C4.10693 6.91424 4.31646 7.12376 4.63074 7.12376ZM7.24979 15.5047L8.19265 14.5619C8.40217 14.3523 8.40217 14.0381 8.19265 13.8285C7.98312 13.619 7.66884 13.619 7.45931 13.8285L6.51646 14.7714L5.5736 13.8285C5.36408 13.619 5.04979 13.619 4.84027 13.8285C4.63074 14.0381 4.63074 14.3523 4.84027 14.5619L5.67836 15.5047L4.7355 16.4476C4.52598 16.6571 4.52598 16.9714 4.7355 17.1809C4.94503 17.1809 5.04979 17.2857 5.15455 17.2857C5.25931 17.2857 5.46884 17.2857 5.5736 17.1809L6.51646 16.2381L7.45931 17.1809C7.45931 17.1809 7.66884 17.2857 7.7736 17.2857C7.87836 17.2857 8.08789 17.2857 8.19265 17.1809C8.40217 16.9714 8.40217 16.6571 8.19265 16.4476L7.24979 15.5047ZM13.5355 7.12376H17.2022C17.5165 7.12376 17.726 6.91424 17.726 6.59995C17.726 6.28567 17.5165 6.07614 17.2022 6.07614H13.5355C13.2212 6.07614 13.0117 6.28567 13.0117 6.59995C13.0117 6.91424 13.2212 7.12376 13.5355 7.12376ZM17.2022 16.0285H13.5355C13.2212 16.0285 13.0117 16.238 13.0117 16.5523C13.0117 16.8666 13.2212 17.0761 13.5355 17.0761H17.2022C17.5165 17.0761 17.726 16.8666 17.726 16.5523C17.726 16.238 17.5165 16.0285 17.2022 16.0285ZM17.2022 13.9333H13.5355C13.2212 13.9333 13.0117 14.1428 13.0117 14.4571C13.0117 14.7714 13.2212 14.9809 13.5355 14.9809H17.2022C17.5165 14.9809 17.726 14.7714 17.726 14.4571C17.726 14.1428 17.5165 13.9333 17.2022 13.9333Z" fill="white"/>
</g>
<defs>
<clipPath id="clip0_2348_10554">
<rect width="19.9048" height="22" fill="white" transform="translate(0.547852)"/>
</clipPath>
</defs>
</svg>
