<svg width="50" height="50" viewBox="0 0 50 50" fill="none" xmlns="http://www.w3.org/2000/svg">
<path d="M26.139 29.5169V6.81182C26.139 3.17774 23.1823 0.2211 19.5482 0.2211C15.914 0.2211 12.9573 3.17774 12.9573 6.81192V29.517C10.0445 31.6314 8.31955 35.001 8.32248 38.614C8.32492 41.6174 9.51116 44.4439 11.6626 46.5729C13.7883 48.6762 16.5849 49.8305 19.5484 49.8305C19.5854 49.8305 19.6226 49.8303 19.6595 49.8299C22.6347 49.801 25.4271 48.6205 27.5225 46.5059C29.6192 44.3899 30.7739 41.5838 30.7739 38.6048C30.7739 34.9954 29.0492 31.6293 26.139 29.5169ZM19.6444 48.2676C17.0601 48.2908 14.6154 47.2965 12.7616 45.4622C10.9087 43.6287 9.88703 41.1962 9.88498 38.6129C9.88235 35.3814 11.4856 32.3758 14.1738 30.5732C14.2803 30.5018 14.3676 30.4052 14.428 30.2921C14.4884 30.1789 14.5199 30.0526 14.5199 29.9243V6.81192C14.5199 4.03926 16.7756 1.7836 19.5483 1.7836C22.3209 1.7836 24.5766 4.03926 24.5766 6.81192V29.9242C24.5766 30.0525 24.6081 30.1788 24.6685 30.292C24.7289 30.4051 24.8162 30.5017 24.9227 30.5732C27.6081 32.3739 29.2114 35.3765 29.2114 38.6047C29.2114 43.8815 24.9197 48.2162 19.6444 48.2675V48.2676Z" fill="#76BC21"/>
<path d="M23.6172 32.5196L22.2327 31.5912V6.81192C22.2327 5.33165 21.0284 4.12735 19.5482 4.12735C18.0679 4.12735 16.8636 5.33165 16.8636 6.81192V31.5912L15.4791 32.5196C13.4419 33.8858 12.2268 36.1629 12.2287 38.6108C12.2303 40.552 12.9968 42.3853 14.3871 43.7731C15.7768 45.1602 17.6103 45.9242 19.5498 45.9242H19.5538L19.6215 45.9238C23.617 45.885 26.8676 42.6016 26.8676 38.6048C26.8676 36.1593 25.6526 33.8846 23.6172 32.5196ZM19.5482 5.68985C20.1669 5.68985 20.6702 6.19317 20.6702 6.81192V13.514H18.4261V6.81182C18.4261 6.19317 18.9295 5.68985 19.5482 5.68985ZM19.6099 44.3614L19.5474 44.3617C18.0256 44.361 16.5851 43.7593 15.4909 42.6672C14.3961 41.5744 13.7925 40.1333 13.7912 38.6096C13.7897 36.6841 14.746 34.8926 16.3493 33.8175L18.08 32.6569C18.1865 32.5855 18.2739 32.4889 18.3342 32.3758C18.3946 32.2626 18.4262 32.1363 18.4262 32.008V15.0764H20.6703V32.008C20.6703 32.1363 20.7019 32.2625 20.7623 32.3757C20.8226 32.4888 20.9099 32.5854 21.0164 32.6568L22.747 33.8175C24.3488 34.8916 25.3052 36.6813 25.3052 38.6047C25.3052 41.7484 22.7486 44.3309 19.6099 44.3614ZM36.6717 10.5011C39.2831 10.5011 41.4077 12.6257 41.4077 15.2372C41.4077 15.4444 41.49 15.6431 41.6366 15.7896C41.7831 15.9362 41.9818 16.0185 42.189 16.0185C42.3962 16.0185 42.5949 15.9362 42.7414 15.7896C42.8879 15.6431 42.9702 15.4444 42.9702 15.2372C42.9702 11.7642 40.1447 8.93858 36.6717 8.93858C33.1986 8.93858 30.3731 11.7642 30.3731 15.2372V23.4109C30.3731 26.884 33.1986 29.7096 36.6717 29.7096C40.1447 29.7096 42.9702 26.884 42.9702 23.4109C42.9702 23.2037 42.8879 23.005 42.7414 22.8585C42.5949 22.712 42.3962 22.6297 42.189 22.6297C41.9818 22.6297 41.7831 22.712 41.6366 22.8585C41.49 23.005 41.4077 23.2037 41.4077 23.4109C41.4077 26.0225 39.2831 28.1471 36.6717 28.1471C34.0603 28.1471 31.9356 26.0225 31.9356 23.4109V15.2371C31.9356 12.6258 34.0602 10.5011 36.6717 10.5011ZM47.0722 8.93858C45.5654 8.93858 44.3398 10.1644 44.3398 11.671C44.3398 13.1776 45.5654 14.4036 47.0722 14.4036C48.5789 14.4036 49.8047 13.1777 49.8047 11.6711C49.8047 10.1645 48.5789 8.93858 47.0722 8.93858ZM47.0722 12.8411C46.4271 12.8411 45.9023 12.3162 45.9023 11.6711C45.9023 11.026 46.4271 10.5012 47.0722 10.5012C47.7173 10.5012 48.2422 11.0259 48.2422 11.671C48.2422 12.3161 47.7173 12.8409 47.0722 12.8409V12.8411ZM5.38605 5.68985H9.10372C9.31092 5.68985 9.50964 5.60754 9.65615 5.46103C9.80266 5.31451 9.88497 5.1158 9.88497 4.9086C9.88497 4.7014 9.80266 4.50269 9.65615 4.35617C9.50964 4.20966 9.31092 4.12735 9.10372 4.12735H5.38605C5.17885 4.12735 4.98013 4.20966 4.83362 4.35617C4.68711 4.50269 4.6048 4.7014 4.6048 4.9086C4.6048 5.1158 4.68711 5.31451 4.83362 5.46103C4.98013 5.60754 5.17885 5.68985 5.38605 5.68985ZM9.10372 8.93858H7.24152C7.03432 8.93858 6.8356 9.02089 6.68909 9.1674C6.54258 9.31392 6.46027 9.51263 6.46027 9.71983C6.46027 9.92703 6.54258 10.1257 6.68909 10.2723C6.8356 10.4188 7.03432 10.5011 7.24152 10.5011H9.10372C9.31092 10.5011 9.50964 10.4188 9.65615 10.2723C9.80266 10.1257 9.88497 9.92703 9.88497 9.71983C9.88497 9.51263 9.80266 9.31392 9.65615 9.1674C9.50964 9.02089 9.31092 8.93858 9.10372 8.93858ZM5.38605 15.3123H9.10372C9.31092 15.3123 9.50964 15.23 9.65615 15.0835C9.80266 14.937 9.88497 14.7383 9.88497 14.5311C9.88497 14.3239 9.80266 14.1251 9.65615 13.9786C9.50964 13.8321 9.31092 13.7498 9.10372 13.7498H5.38605C5.17885 13.7498 4.98013 13.8321 4.83362 13.9786C4.68711 14.1251 4.6048 14.3239 4.6048 14.5311C4.6048 14.7383 4.68711 14.937 4.83362 15.0835C4.98013 15.23 5.17885 15.3123 5.38605 15.3123ZM9.10372 18.5611H7.24152C7.03432 18.5611 6.8356 18.6434 6.68909 18.79C6.54258 18.9365 6.46027 19.1352 6.46027 19.3424C6.46027 19.5496 6.54258 19.7483 6.68909 19.8948C6.8356 20.0413 7.03432 20.1236 7.24152 20.1236H9.10372C9.31092 20.1236 9.50964 20.0413 9.65615 19.8948C9.80266 19.7483 9.88497 19.5496 9.88497 19.3424C9.88497 19.1352 9.80266 18.9365 9.65615 18.79C9.50964 18.6434 9.31092 18.5611 9.10372 18.5611ZM9.88497 24.1536C9.88497 23.9464 9.80266 23.7477 9.65615 23.6012C9.50964 23.4547 9.31092 23.3724 9.10372 23.3724H5.38605C5.17885 23.3724 4.98013 23.4547 4.83362 23.6012C4.68711 23.7477 4.6048 23.9464 4.6048 24.1536C4.6048 24.3608 4.68711 24.5595 4.83362 24.706C4.98013 24.8526 5.17885 24.9349 5.38605 24.9349H9.10372C9.31092 24.9349 9.50964 24.8526 9.65615 24.706C9.80266 24.5595 9.88497 24.3608 9.88497 24.1536ZM9.88497 28.9648C9.88497 28.7576 9.80266 28.5589 9.65615 28.4124C9.50964 28.2659 9.31092 28.1836 9.10372 28.1836H7.24152C7.03432 28.1836 6.8356 28.2659 6.68909 28.4124C6.54258 28.5589 6.46027 28.7576 6.46027 28.9648C6.46027 29.1721 6.54258 29.3708 6.68909 29.5173C6.8356 29.6638 7.03432 29.7461 7.24152 29.7461H9.10372C9.31092 29.7461 9.50964 29.6638 9.65615 29.5173C9.80266 29.3708 9.88497 29.1721 9.88497 28.9648Z" fill="#76BC21"/>
</svg>
