<svg width="103" height="29" viewBox="0 0 103 29" fill="none" xmlns="http://www.w3.org/2000/svg">
<path d="M51.7611 14.7432C49.2049 14.7432 47.1167 16.8313 47.1167 19.3876C47.1167 21.9438 49.2049 24.032 51.7611 24.032C54.3173 24.032 56.4055 21.9438 56.4055 19.3876C56.4055 16.8313 54.3173 14.7432 51.7611 14.7432ZM51.7611 22.0158C50.285 22.0158 49.0609 20.8277 49.0609 19.3156C49.0609 17.8034 50.249 16.6153 51.7611 16.6153C53.2372 16.6153 54.4613 17.8034 54.4613 19.3156C54.4613 20.8277 53.2372 22.0158 51.7611 22.0158Z" fill="#292F70"/>
<path d="M51.7608 24.5332C48.9526 24.4972 46.6844 22.229 46.7204 19.4207C46.7564 16.6125 49.0246 14.3443 51.8328 14.3803C54.6051 14.4163 56.8733 16.6845 56.8733 19.4567C56.8733 22.265 54.6051 24.5332 51.7968 24.5332M51.7968 15.2804C49.4926 15.2804 47.6204 17.1525 47.6204 19.4567C47.6204 21.7609 49.4926 23.6331 51.7968 23.6331C54.101 23.6331 55.9732 21.7609 55.9732 19.4567C55.9732 17.1525 54.101 15.2804 51.7968 15.2804ZM51.7968 22.553C50.0687 22.553 48.6645 21.1489 48.6645 19.4207C48.6645 17.6926 50.0687 16.2885 51.7968 16.2885C53.525 16.2885 54.9291 17.6926 54.9291 19.4207C54.9291 21.1489 53.525 22.553 51.7968 22.553ZM51.7968 17.1525C50.5727 17.1525 49.5646 18.1606 49.5646 19.3847C49.5646 20.6088 50.5727 21.6169 51.7968 21.6169C53.0209 21.6169 54.029 20.6088 54.029 19.3847C54.065 18.1606 53.0569 17.1525 51.7968 17.1525ZM32.7871 14.7403C30.3749 14.6683 28.3587 16.5045 28.1787 18.9167V27.4854H30.1229V23.2371C32.1751 24.7852 35.0553 24.4252 36.6395 22.373C38.1876 20.3208 37.8276 17.4406 35.7754 15.8564C34.9113 15.2084 33.8672 14.8843 32.8231 14.9204M32.7871 22.193C31.311 22.193 30.0869 21.0049 30.0869 19.4927C30.0869 18.0166 31.275 16.7925 32.7871 16.7925C34.2993 16.7925 35.4874 17.9806 35.4874 19.4927C35.4514 21.0049 34.2632 22.193 32.7871 22.193Z" fill="#292F70"/>
<path d="M30.5548 28.0619H27.7466V18.5931C27.8906 17.477 28.4306 16.4689 29.2587 15.7128C30.2308 14.8488 31.4909 14.3807 32.787 14.3447C35.5953 14.3447 37.8635 16.6129 37.8635 19.4212C37.8635 22.2294 35.5953 24.5336 32.787 24.5336C32.031 24.5336 31.2389 24.3536 30.5548 24.0296V28.0619ZM28.6107 27.2338H29.6548V22.3734L30.3748 22.8775C32.283 24.1736 34.8752 23.7055 36.1713 21.7974C37.4674 19.8892 36.9994 17.297 35.0912 16.0009C34.4072 15.5328 33.6151 15.2808 32.787 15.2808C31.7069 15.2808 30.6628 15.6768 29.8708 16.3969C29.0787 17.045 28.6467 18.017 28.6107 19.0251V19.4932V27.2338ZM32.787 22.6254C31.0589 22.5534 29.7268 21.0773 29.7988 19.3492C29.8708 17.621 31.3469 16.2889 33.0751 16.3609C34.7312 16.4329 36.0273 17.765 36.0633 19.4212C36.0633 21.1493 34.6592 22.5534 32.931 22.5534M32.931 17.153C31.7069 17.153 30.6988 18.1611 30.6988 19.3852C30.6988 20.6093 31.7069 21.6173 32.931 21.6173C34.1552 21.6173 35.1632 20.6093 35.1632 19.3852C35.1632 18.1611 34.1552 17.153 32.931 17.153ZM88.304 19.4572C88.304 22.0134 90.3921 24.1016 92.9484 24.0656C93.9204 24.0656 94.8205 23.7775 95.6126 23.2015V24.0656H97.5568V19.9252V19.0971C97.2327 16.5409 94.8925 14.7768 92.3723 15.1008C90.1401 15.3888 88.412 17.261 88.34 19.5292M90.2481 19.5292C90.2481 18.053 91.4362 16.8289 92.9484 16.8289C94.4245 16.8289 95.6486 18.017 95.6486 19.5292C95.6486 21.0413 94.4605 22.2294 92.9484 22.2294C91.4722 22.2654 90.2481 21.0773 90.2121 19.6012V19.4212" fill="#292F70"/>
<path d="M98.0244 24.5305H95.1802V24.0265C94.4961 24.3505 93.74 24.5305 92.948 24.5305C90.1397 24.5305 87.8715 22.2623 87.8715 19.4541C87.8715 16.6458 90.1397 14.3776 92.948 14.3776C95.5402 14.3776 97.7004 16.3218 97.9884 18.878V24.5305H98.0244ZM96.0802 23.6304H97.1243V19.8141V19.058C96.9083 16.7538 94.8561 15.0977 92.5879 15.3137C90.2837 15.5297 88.6276 17.5819 88.8436 19.8501C89.0596 22.1543 91.1118 23.8104 93.38 23.5944C94.1001 23.5224 94.7841 23.2704 95.3602 22.8384L96.0802 22.3343V23.6304ZM92.912 22.5503C91.1838 22.5503 89.7797 21.1462 89.7797 19.4181C89.7797 17.6899 91.1838 16.2858 92.912 16.2858C94.6401 16.2858 96.0442 17.6899 96.0442 19.4181C96.0802 21.1462 94.6761 22.5503 92.912 22.5503ZM92.912 17.1499C91.6878 17.1499 90.6798 18.158 90.6798 19.3821C90.6798 20.6062 91.6878 21.6143 92.912 21.6143C94.1361 21.6143 95.1441 20.6062 95.1441 19.3821C95.1802 18.158 94.1721 17.1499 92.912 17.1499ZM82.363 24.0985C84.7392 24.0985 86.7554 22.2983 86.9714 19.9221V11.3174H85.0273V15.6738C82.9751 14.1256 80.0948 14.4857 78.5107 16.5378C76.9625 18.59 77.3226 21.4703 79.3748 23.0544C80.2388 23.7024 81.2829 24.0265 82.327 23.9905M82.363 16.7178C83.8391 16.7178 85.0633 17.9059 85.0633 19.4181C85.0633 20.8942 83.8752 22.1183 82.363 22.1183C80.8509 22.1183 79.6628 20.9302 79.6628 19.4181C79.6988 17.978 80.8869 16.8259 82.291 16.8259" fill="#292F70"/>
<path d="M82.3633 24.5329C79.5551 24.5329 77.2869 22.2647 77.2869 19.4564C77.2869 16.6482 79.5551 14.38 82.3633 14.38C83.1554 14.38 83.9115 14.56 84.6315 14.884V10.8877H87.4758V20.3205C87.0437 22.7327 84.9195 24.4969 82.4713 24.4969M82.3993 15.2441C80.0951 15.2441 78.259 17.1162 78.259 19.4204C78.259 21.7246 80.1311 23.5608 82.4353 23.5608C84.5595 23.5608 86.3597 21.9406 86.5397 19.8165V11.7878H85.4956V16.5762L84.7755 16.0721C84.0555 15.5681 83.2274 15.3161 82.3633 15.3161M82.3993 22.6607C80.6712 22.6607 79.267 21.2566 79.267 19.5284C79.267 17.8003 80.6712 16.3962 82.3993 16.3962C84.1275 16.3962 85.5316 17.8003 85.5316 19.5284C85.5316 21.2566 84.1275 22.6607 82.3993 22.6607ZM82.3993 17.2602C81.1752 17.2602 80.1671 18.2683 80.1671 19.4924C80.1671 20.7165 81.1752 21.7246 82.3993 21.7246C83.6234 21.7246 84.6315 20.7165 84.6315 19.4924C84.6315 18.2683 83.6234 17.2602 82.3993 17.2602ZM64.5777 14.812L61.4815 21.9406L58.3132 14.74H56.369L60.4734 24.1368H62.4536L66.5219 14.812H64.5777Z" fill="#292F70"/>
<path d="M62.7422 24.5713H60.1859L55.6855 14.2744H58.6018L61.4461 20.791L64.2903 14.3104H67.3146L62.7422 24.5713ZM60.762 23.6712H62.1301L65.8384 15.2465H64.8664L61.4461 23.0592L58.0258 15.1745H57.0537L60.762 23.6712Z" fill="#292F70"/>
<path fill-rule="evenodd" clip-rule="evenodd" d="M45.5683 16.9392C44.9202 15.139 42.9041 14.2029 41.1039 14.851C39.8438 15.319 38.9437 16.4351 38.8357 17.7672V24.2118H40.9239V18.9193C40.9239 18.0553 40.9239 17.1552 41.932 16.8311C42.9401 16.5071 43.7321 17.2632 43.8401 18.3793H45.9283C45.8923 17.9112 45.8203 17.4432 45.6763 16.9752" fill="#292F70"/>
<path d="M40.8164 24.6769H38.3322V24.2449V21.7246V20.0325V19.6725C38.2962 19.0244 38.2962 18.4124 38.3322 17.7643C38.5482 15.6041 40.4564 13.984 42.6166 14.2C44.1647 14.344 45.4968 15.3881 46.0009 16.8642C46.1449 17.3683 46.2169 17.8723 46.2889 18.4124V18.8804H43.3006V18.4844C43.3006 18.0523 43.1206 17.6563 42.7966 17.3683C42.5446 17.2243 42.2565 17.2243 41.9685 17.3683C41.3564 17.5843 41.2844 18.0163 41.2844 18.9884V18.8804V24.6049L40.8164 24.6769ZM39.2323 23.7768H40.3844V18.8804C40.3844 18.0163 40.3844 16.7922 41.6805 16.3962C42.1845 16.1802 42.7606 16.2522 43.2286 16.5042C43.6967 16.8282 44.0207 17.3323 44.0927 17.8723H45.3528C45.3168 17.5843 45.2448 17.2963 45.1728 17.0442C44.5967 15.4601 42.8326 14.632 41.2484 15.2441C40.1683 15.6401 39.3763 16.6122 39.2683 17.7643C39.2323 18.3764 39.2323 18.9884 39.2683 19.5645V23.7768M73.9033 20.6806C75.0554 20.6806 76.0275 19.8525 76.2435 18.7364C76.4596 17.5843 75.9915 16.3962 75.0194 15.6761C73.0753 14.308 70.483 14.308 68.5749 15.6761C66.7387 17.1162 66.1626 19.6725 67.2787 21.7246C68.5029 24.0648 70.411 24.2809 72.7512 24.2809H76.0275V22.1927H71.1311C69.907 22.0487 69.0069 20.9686 69.0429 19.7085C68.7549 18.4484 69.5109 17.1883 70.771 16.8642C70.8071 16.8642 70.8431 16.8642 70.8431 16.8282C71.8151 16.6122 73.4713 16.4682 73.6873 17.7283C73.9033 18.9884 72.4272 18.7724 71.8872 18.7724H70.771V20.6085H73.9033" fill="#292F70"/>
<path d="M76.4583 24.6747H72.7859C70.4457 24.6747 68.2855 24.4587 66.9534 21.9025C65.7653 19.6703 66.3414 16.8981 68.3576 15.3139C70.4457 13.8018 73.29 13.8018 75.3782 15.3139C76.4583 16.106 76.9623 17.4741 76.7463 18.8062C76.4943 20.1383 75.3422 21.1104 74.0101 21.1464H70.3737V18.3742H71.9939C72.2819 18.3742 73.038 18.3742 73.254 18.1582C73.47 17.9421 73.254 18.1582 73.254 17.8701C73.218 17.6901 73.146 17.5101 72.966 17.4021C72.2819 17.1501 71.5618 17.1501 70.8778 17.4021C69.9057 17.6181 69.2576 18.5542 69.4016 19.5623C69.3296 20.6424 70.1217 21.5424 71.2018 21.6505C72.2099 21.7585 75.1622 21.6505 76.0262 21.6505H76.5303L76.4583 24.6747ZM71.8859 15.0619C70.8058 15.0259 69.7617 15.3499 68.8976 15.998C67.2055 17.2941 66.7374 19.5983 67.7455 21.4704C68.8616 23.5586 70.5177 23.7746 72.8219 23.7746H75.6662V22.5505H71.1298C69.6177 22.4425 68.5016 21.1464 68.5376 19.6343C68.3216 18.1222 69.3656 16.754 70.8418 16.502C71.7419 16.214 72.7139 16.286 73.542 16.718C73.902 16.9701 74.1181 17.3301 74.1901 17.7621C74.2621 18.1222 74.1901 18.5182 73.938 18.8062C73.362 19.2743 72.6059 19.4543 71.8499 19.3103H71.1298V20.3183H73.758C74.6941 20.2823 75.4862 19.6343 75.7022 18.6982C75.8822 17.6901 75.4862 16.646 74.6581 16.07C73.83 15.4219 72.8219 15.0979 71.7779 15.1699M101.3 19.7423V11.6416H99.2123V20.9304C99.1763 22.1905 99.8243 23.3426 100.904 23.9547C101.3 24.1707 101.769 24.3507 102.201 24.4587V22.1545C101.3 21.6505 101.228 21.5785 101.228 19.6703" fill="#292F70"/>
<path d="M102.669 24.998H102.165C101.66 24.89 101.156 24.71 100.688 24.422C99.5003 23.7019 98.7802 22.4058 98.8162 21.0017V16.5013V11.1729H101.696V19.7056C101.696 21.3977 101.696 21.3977 102.453 21.7938L102.669 21.9018V24.998ZM99.7163 16.9333V20.9297C99.6803 22.0098 100.256 23.0539 101.192 23.5939C101.372 23.7019 101.588 23.8099 101.804 23.8819V22.4418C100.904 21.9018 100.832 21.5417 100.832 19.7056V16.9333V12.0729H99.7163V17.0414" fill="#292F70"/>
<path d="M0.672363 0.161133H24.7225V24.2112H0.672363V0.161133Z" fill="#2A307B"/>
<path d="M21.8779 17.261L17.3055 8.87232L18.2056 8.08025L14.8213 4.87598L13.6692 5.66804H12.0491L10.861 4.87598L7.47665 8.08025L8.23272 8.87232L3.84033 17.261L7.36864 15.0648L9.49283 16.901L8.44874 21.0774L6.79259 22.5535L9.27681 22.1575L10.825 17.9451L12.8411 19.6732L14.8933 17.9451L16.4054 22.1575L18.8537 22.5535L17.2335 21.1494L16.2614 16.829L18.3496 15.0648L21.8779 17.261Z" fill="white"/>
<path d="M15.1093 12.905L14.4613 10.6368H11.221L10.6089 12.905L11.689 11.8249L12.8051 12.905L12.8411 12.977L12.9131 12.905L13.9932 11.8249L15.1093 12.905ZM10.4649 6.89245L8.98877 8.11655L10.9329 9.98871L10.4649 6.89245ZM15.1453 6.85645L16.6574 8.08055L14.7493 9.95271L15.1453 6.85645Z" fill="#2A307B"/>
<path d="M14.4261 3.65152C14.4261 4.51559 13.706 5.23565 12.842 5.23565C11.9779 5.23565 11.2578 4.51559 11.2578 3.65152C11.2578 2.78744 11.9779 2.06738 12.842 2.06738C13.706 2.06738 14.4261 2.75144 14.4261 3.65152Z" fill="white"/>
</svg>
