<svg width="90" height="21" viewBox="0 0 90 21" fill="none" xmlns="http://www.w3.org/2000/svg">
<path fill-rule="evenodd" clip-rule="evenodd" d="M83.6434 20.1905H63.6239V0.0327148H83.6434V20.1905Z" fill="#F15A22"/>
<path fill-rule="evenodd" clip-rule="evenodd" d="M75.0489 7.51063C74.8945 6.66425 74.2084 6.4397 73.4364 6.4397C72.6645 6.4397 72.1669 6.71608 72.1669 7.14791C72.1669 8.99614 79.1832 7.85611 79.1832 12.3299C79.1832 15.1972 76.833 16.579 73.4707 16.579C70.1084 16.579 68.1528 14.679 68.067 12.4508H71.8582C71.8582 13.1763 72.8531 13.7463 73.6594 13.7463C74.4657 13.7463 75.3749 13.4181 75.3749 12.8308C75.3749 10.9653 68.3586 12.2608 68.3586 7.54521C68.3586 4.91969 70.5887 3.60693 73.6423 3.60693C77.0732 3.60693 78.5656 5.33421 78.7887 7.51063H75.0489Z" fill="white"/>
<path fill-rule="evenodd" clip-rule="evenodd" d="M20.0675 20.1905H0.0308838V0.0327148H20.0675V20.1905Z" fill="#F15A22"/>
<path fill-rule="evenodd" clip-rule="evenodd" d="M11.4557 7.51063C11.3185 6.66425 10.6151 6.4397 9.84316 6.4397C9.0712 6.4397 8.57368 6.71608 8.57368 7.14791C8.57368 8.99614 15.6071 7.85611 15.6071 12.3299C15.6071 15.1972 13.2398 16.579 9.87745 16.579C6.51515 16.579 4.55953 14.679 4.47375 12.4508H8.38501C8.38501 13.1763 9.37998 13.7463 10.1005 13.7463C10.821 13.7463 11.8159 13.4181 11.8159 12.8308C11.8159 10.9653 4.7997 12.2608 4.7997 7.54521C4.7997 4.91969 7.04693 3.60693 10.0833 3.60693C13.5142 3.60693 15.0238 5.33421 15.2297 7.51063H11.4557Z" fill="white"/>
<path fill-rule="evenodd" clip-rule="evenodd" d="M41.2537 20.1905H21.2343V0.0327148H41.2537V20.1905Z" fill="#F15A22"/>
<path fill-rule="evenodd" clip-rule="evenodd" d="M33.3624 16.5768H29.1423V6.62748H25.334V3.5874H37.1535V6.62748H33.3624V16.5768Z" fill="white"/>
<path fill-rule="evenodd" clip-rule="evenodd" d="M85.6838 2.2955V0.309085H84.9462V0.0327148H86.7303V0.309085H85.9754V2.2955H85.6838Z" fill="#F15A22"/>
<path fill-rule="evenodd" clip-rule="evenodd" d="M87.0223 2.31279V0.0327148H87.4512L88.0002 1.6564C88.0404 1.76383 88.0747 1.87339 88.1031 1.98459C88.1031 1.89822 88.1031 1.77727 88.2232 1.62182L88.755 0.0327148H89.1667V2.31279H88.8751V0.412727L88.2232 2.31279H87.9487L87.2968 0.378146V2.31279H87.0223Z" fill="#F15A22"/>
<path fill-rule="evenodd" clip-rule="evenodd" d="M62.4571 20.1905H42.4205V0.0327148H62.4571V20.1905Z" fill="#F15A22"/>
<path fill-rule="evenodd" clip-rule="evenodd" d="M54.2058 16.579H50.672V7.94246H54.2058V16.579ZM54.2058 3.60693V6.56063H50.672V3.60693H54.2058Z" fill="white"/>
</svg>
