<svg width="85" height="32" viewBox="0 0 85 32" fill="none" xmlns="http://www.w3.org/2000/svg">
<path d="M77.9797 14.8345C77.9738 14.607 78.0444 14.3841 78.1802 14.2015C78.3211 14.0184 78.5013 13.8694 78.7076 13.7655C78.9477 13.6442 79.2033 13.5566 79.4672 13.5052C79.7521 13.4488 80.0419 13.4205 80.3323 13.4208C80.6224 13.4199 80.912 13.4458 81.1974 13.4982C81.461 13.5474 81.7166 13.6325 81.9569 13.7514C82.1702 13.8569 82.3575 14.0082 82.5055 14.1945C82.6441 14.3787 82.7171 14.604 82.713 14.8345V18.1084C82.7179 18.3325 82.6473 18.5517 82.5125 18.7308C82.3713 18.9158 82.1897 19.0662 81.9815 19.1704C81.7419 19.2903 81.4878 19.379 81.2255 19.4341C80.9365 19.4953 80.6418 19.5259 80.3464 19.5255C80.0556 19.5253 79.7657 19.4946 79.4813 19.4341C79.218 19.3784 78.9629 19.2898 78.7217 19.1704C78.5152 19.0651 78.335 18.9149 78.1942 18.7308C78.0595 18.5517 77.9889 18.3325 77.9938 18.1084L77.9797 14.8345ZM76.3973 18.1224C76.3929 18.5603 76.515 18.9901 76.7489 19.3603C76.9757 19.7171 77.2782 20.0197 77.6351 20.2464C78.0237 20.4887 78.4488 20.6668 78.894 20.7739C79.8475 21.0127 80.8452 21.0127 81.7987 20.7739C82.2459 20.6661 82.6732 20.4881 83.0646 20.2464C83.4243 20.0209 83.7294 19.7182 83.9578 19.3603C84.1917 18.9901 84.3138 18.5603 84.3095 18.1224V14.8099C84.3143 14.3742 84.1921 13.9465 83.9578 13.5791C83.7292 13.2233 83.424 12.923 83.0646 12.6999C82.6734 12.4636 82.2474 12.2903 81.8022 12.1865C80.8482 11.9521 79.8516 11.9521 78.8975 12.1865C78.4521 12.2948 78.027 12.4741 77.6386 12.7175C77.2821 12.9417 76.9795 13.2419 76.7524 13.5967C76.5182 13.9641 76.396 14.3917 76.4008 14.8275L76.3973 18.1224ZM66.3927 20.8302H67.9751V16.8424L67.6868 14.4301H67.8239L68.6363 16.5224L70.2433 19.624H71.4952L73.0917 16.5224L73.9181 14.4653H74.0658L73.7634 16.8284V20.8302H75.3564V12.1162H73.57L70.8622 17.7778L68.1791 12.1162H66.4208L66.3927 20.8302ZM54.0848 13.5299H58.9095V12.1021H52.5024V20.8302H58.9236V19.4025H54.0989V17.187H58.5403V15.7593H54.0989L54.0848 13.5299ZM45.2477 17.187H49.5801V20.8302H51.2083V12.1162H49.6118V15.7699H45.2618V14.0116H43.6653V20.8302H45.2618L45.2477 17.187Z" fill="#0A3356"/>
<path d="M45.2479 13.415V11.9873H37.7366V13.415H40.694V20.7048H42.2905V13.415H45.2479Z" fill="#0A3356"/>
<path d="M65.0457 15.8631C65.1794 15.5216 65.2439 15.1571 65.2356 14.7905C65.2304 14.3642 65.1319 13.9441 64.9473 13.5597C64.7858 13.2268 64.5441 12.9392 64.244 12.7228C63.9232 12.5034 63.566 12.3427 63.189 12.2481C62.7513 12.1439 62.3026 12.0932 61.8527 12.0969H59.8342V13.5246H61.8668C62.3166 13.5063 62.7638 13.6006 63.1679 13.7989C63.338 13.902 63.4755 14.0512 63.5645 14.2292C63.6535 14.4071 63.6903 14.6066 63.6708 14.8046C63.6861 15.0075 63.6493 15.211 63.5637 15.3957C63.4782 15.5804 63.3467 15.7401 63.182 15.8596C62.7845 16.0934 62.3274 16.2059 61.8668 16.1831H59.8342V17.4279H60.8505L63.7657 20.8003H65.7033L62.6932 17.3787C63.0434 17.3329 63.3869 17.2455 63.7165 17.1185C64.0178 17.005 64.2956 16.8369 64.5358 16.6226C64.7677 16.4069 64.9511 16.1444 65.0739 15.8525" fill="#0A3356"/>
<path d="M46.9496 31.4427H52.9664V30.015H48.532V22.7428H46.9496V31.4427ZM38.5275 28.7209C38.5175 29.1581 38.627 29.5897 38.844 29.9693C39.0531 30.3259 39.3419 30.6292 39.6879 30.8555C40.0571 31.0977 40.4651 31.2749 40.8941 31.3794C41.3433 31.4951 41.8053 31.553 42.2691 31.5518C42.7434 31.5547 43.2161 31.4968 43.6757 31.3794C44.1028 31.2795 44.5096 31.1071 44.8784 30.8695C45.2256 30.6426 45.5166 30.3395 45.7294 29.9834C45.9519 29.6057 46.064 29.1732 46.0529 28.735V26.6778H41.7135V28.0458H44.4529V28.7491C44.4578 28.971 44.3925 29.1888 44.2665 29.3715C44.1366 29.5527 43.967 29.7019 43.7706 29.8076C43.55 29.9278 43.3131 30.0154 43.0673 30.0678C42.8038 30.1244 42.5351 30.1527 42.2656 30.1522C41.9996 30.1523 41.7343 30.124 41.4743 30.0678C41.2282 30.0167 40.9911 29.929 40.771 29.8076C40.5863 29.692 40.4281 29.5386 40.3069 29.3574C40.182 29.1743 40.1181 28.9565 40.124 28.735V25.4119C40.1191 25.196 40.1832 24.9841 40.3069 24.807C40.4362 24.6324 40.6002 24.4864 40.7886 24.378C41.0015 24.2572 41.2316 24.1695 41.4708 24.1178C41.7284 24.0614 41.9913 24.0331 42.255 24.0334C42.6786 24.0334 43.0976 24.1207 43.4858 24.2901C43.8768 24.4571 44.1993 24.7523 44.4001 25.127L45.8173 24.5011C45.6435 24.1789 45.4204 23.8859 45.1562 23.6325C44.9023 23.3958 44.6157 23.1968 44.3052 23.0417C43.9923 22.8853 43.6617 22.7672 43.3205 22.6901C42.9737 22.6165 42.6201 22.58 42.2656 22.5811C41.8018 22.5799 41.3397 22.6378 40.8906 22.7534C40.4639 22.8566 40.0583 23.0327 39.6915 23.2738C39.3507 23.5019 39.0628 23.8005 38.8475 24.1495C38.625 24.5181 38.5127 24.9428 38.524 25.3732L38.5275 28.7209Z" fill="#0A3356"/>
<path d="M54.2788 24.226L54.6481 25.6044L55.4463 27.8093H53.041L53.8252 25.6291L54.2226 24.2224L54.2788 24.226ZM55.0876 22.7842H53.4243L51.012 29.2652L55.9984 29.237L56.9444 31.5017H58.6112L55.0876 22.7842Z" fill="#0A3356"/>
<path d="M67.7363 24.7387C67.8535 24.5916 68.001 24.4717 68.1688 24.387C68.3608 24.2871 68.5655 24.2138 68.7772 24.169C69.0082 24.1184 69.2441 24.0936 69.4805 24.0951C69.8935 24.0884 70.3039 24.16 70.6902 24.3061C71.0676 24.4644 71.3724 24.7578 71.5447 25.129L72.9865 24.5523C72.8349 24.2245 72.6239 23.9276 72.3641 23.6767C72.1089 23.4428 71.8211 23.2473 71.5096 23.0964C71.2002 22.9431 70.8713 22.833 70.532 22.7694C70.1839 22.7054 69.8309 22.6725 69.477 22.6709C69.0544 22.6694 68.6335 22.7238 68.2251 22.8327C67.8375 22.9314 67.4683 23.0917 67.1315 23.3074C66.8154 23.5082 66.5438 23.7715 66.3332 24.0811C66.1238 24.3949 66.0023 24.7593 65.9816 25.136C65.9679 25.5231 66.0709 25.9053 66.2769 26.2332C66.4733 26.5286 66.7312 26.7781 67.033 26.9646C67.3617 27.1654 67.7167 27.3193 68.088 27.4218C68.4783 27.5308 68.8757 27.6257 69.2766 27.6996C69.579 27.7488 69.8673 27.8016 70.1381 27.8649C70.3809 27.9176 70.6168 27.9978 70.8414 28.104C71.0318 28.189 71.1975 28.3209 71.3232 28.4873C71.4434 28.6633 71.4947 28.8773 71.4674 29.0886C71.4524 29.2714 71.3825 29.4455 71.2669 29.588C71.1462 29.7371 70.9936 29.8572 70.8203 29.9396C70.6223 30.0306 70.413 30.0945 70.1979 30.1295C69.9604 30.1762 69.719 30.1998 69.477 30.1998C69.026 30.2003 68.5817 30.0905 68.1829 29.8798C67.7836 29.6681 67.4612 29.3359 67.2616 28.9304L65.8057 29.5211C65.9721 29.8578 66.1918 30.1654 66.4563 30.4319C66.7155 30.6915 67.0103 30.913 67.3319 31.0895C67.6512 31.2681 67.993 31.4029 68.3482 31.4904C68.7079 31.582 69.0777 31.6281 69.4489 31.6275C69.8868 31.6279 70.3233 31.5783 70.75 31.4799C71.1531 31.3899 71.5398 31.238 71.8964 31.0297C72.225 30.8401 72.5091 30.5823 72.7298 30.2737C72.9502 29.9547 73.0724 29.5782 73.0815 29.1906C73.131 28.7526 73.0464 28.31 72.8388 27.9211C72.6447 27.5852 72.3704 27.3025 72.0406 27.0983C71.6877 26.8795 71.3035 26.7159 70.9012 26.613C70.4687 26.5004 70.0432 26.4055 69.6212 26.3316C69.3645 26.2894 69.1113 26.2437 68.8651 26.191C68.639 26.1435 68.4176 26.0752 68.204 25.987C68.0303 25.9175 67.8734 25.8121 67.7433 25.6776C67.6308 25.5577 67.5691 25.3989 67.571 25.2345C67.5705 25.0588 67.6286 24.888 67.7363 24.7492M60.1933 24.7492C60.3105 24.6022 60.458 24.4822 60.6259 24.3976C60.8178 24.2977 61.0225 24.2243 61.2342 24.1795C61.4652 24.129 61.7011 24.1042 61.9375 24.1057C62.3505 24.0989 62.761 24.1705 63.1472 24.3167C63.5246 24.4749 63.8294 24.7684 64.0017 25.1395L65.4435 24.5628C65.2919 24.235 65.0809 23.9381 64.8211 23.6872C64.5667 23.4496 64.2788 23.2505 63.9666 23.0964C63.6573 22.9431 63.3283 22.833 62.989 22.7694C62.6352 22.7044 62.2762 22.6714 61.9164 22.6709C61.4938 22.6692 61.0728 22.7236 60.6645 22.8327C60.2769 22.9314 59.9077 23.0917 59.5709 23.3074C59.2549 23.5082 58.9832 23.7715 58.7726 24.0811C58.5632 24.3949 58.4418 24.7593 58.421 25.136C58.4074 25.5231 58.5103 25.9053 58.7164 26.2332C58.9158 26.5298 59.1774 26.7794 59.483 26.9646C59.8116 27.1654 60.1667 27.3193 60.5379 27.4218C60.9283 27.5308 61.3257 27.6257 61.7265 27.6996C62.029 27.7488 62.3173 27.8016 62.5881 27.8649C62.8309 27.9176 63.0668 27.9978 63.2914 28.104C63.4818 28.189 63.6475 28.3209 63.7732 28.4873C63.8934 28.6633 63.9447 28.8773 63.9173 29.0886C63.9023 29.2714 63.8325 29.4455 63.7169 29.588C63.5962 29.7371 63.4436 29.8572 63.2703 29.9396C63.0717 30.0345 62.8611 30.102 62.6444 30.1401C62.4127 30.1856 62.1772 30.2092 61.941 30.2104C61.49 30.2109 61.0458 30.101 60.647 29.8904C60.2476 29.6787 59.9252 29.3464 59.7256 28.9409L58.2698 29.5317C58.4361 29.8684 58.6558 30.1759 58.9203 30.4425C59.1795 30.7021 59.4744 30.9235 59.796 31.1001C60.1152 31.2787 60.457 31.4135 60.8122 31.501C61.1719 31.5926 61.5417 31.6387 61.9129 31.6381C62.3508 31.6384 62.7873 31.5889 63.214 31.4904C63.6171 31.4004 64.0038 31.2486 64.3604 31.0403C64.689 30.8506 64.9732 30.5928 65.1939 30.2842C65.4142 29.9652 65.5365 29.5887 65.5455 29.2011C65.595 28.7632 65.5104 28.3205 65.3029 27.9317C65.1087 27.5958 64.8345 27.3131 64.5046 27.1088C64.1469 26.8847 63.7566 26.7174 63.3477 26.613C62.9151 26.5004 62.4896 26.4055 62.0676 26.3316C61.8109 26.2894 61.5577 26.2437 61.3116 26.191C61.0854 26.1435 60.8641 26.0752 60.6505 25.987C60.4768 25.9175 60.3198 25.8121 60.1898 25.6776C60.0773 25.5577 60.0156 25.3989 60.0175 25.2345C60.0169 25.0588 60.0751 24.888 60.1828 24.7492" fill="#0A3356"/>
<path d="M76.9329 24.144C76.9137 24.4121 76.8166 24.6687 76.6535 24.8822C76.4904 25.0958 76.2684 25.257 76.0148 25.3461C75.7613 25.4352 75.4872 25.4482 75.2264 25.3835C74.9655 25.3189 74.7292 25.1794 74.5466 24.9822C74.364 24.785 74.243 24.5388 74.1985 24.2738C74.154 24.0087 74.188 23.7365 74.2962 23.4905C74.4044 23.2445 74.5821 23.0355 74.8076 22.8892C75.033 22.7429 75.2963 22.6657 75.565 22.6671C75.7536 22.6685 75.9399 22.7086 76.1124 22.7847C76.2849 22.8609 76.44 22.9716 76.5681 23.1099C76.6963 23.2483 76.7947 23.4114 76.8575 23.5892C76.9202 23.7671 76.9459 23.9559 76.9329 24.144ZM77.3162 24.144C77.3093 23.7978 77.2003 23.4614 77.003 23.1769C76.8056 22.8924 76.5287 22.6726 76.2068 22.5449C75.885 22.4172 75.5326 22.3873 75.1939 22.4591C74.8552 22.5308 74.5452 22.701 74.3028 22.9483C74.0604 23.1955 73.8964 23.5088 73.8314 23.8489C73.7663 24.1889 73.8031 24.5407 73.9372 24.8599C74.0712 25.1791 74.2965 25.4517 74.5849 25.6434C74.8732 25.8351 75.2117 25.9374 75.558 25.9374C75.7928 25.9409 76.0259 25.8966 76.2431 25.8073C76.4604 25.7179 76.6572 25.5854 76.8216 25.4177C76.986 25.2499 77.1146 25.0506 77.1997 24.8316C77.2847 24.6127 77.3244 24.3787 77.3162 24.144ZM75.2063 24.0455V23.4407H75.6002C75.7971 23.4407 76.0292 23.4688 76.0292 23.708C76.0292 23.9471 75.8147 24.0209 75.572 24.0209L75.2063 24.0455ZM75.2063 24.3233H75.5123L76.0257 25.1708H76.3773L75.8217 24.2987C75.892 24.2998 75.9618 24.2864 76.0266 24.2592C76.0915 24.2321 76.15 24.1918 76.1986 24.141C76.2471 24.0901 76.2846 24.0298 76.3087 23.9637C76.3328 23.8977 76.343 23.8274 76.3386 23.7572C76.3386 23.3563 76.096 23.1875 75.6142 23.1875H74.8652V25.1708H75.1887L75.2063 24.3233Z" fill="#0A3356"/>
<path d="M27.011 27.2438V28.995L11.9813 28.9599V11.3069L27.011 13.6911V15.9874L29.0541 16.4867V11.9469L24.3876 11.2084V5.00524L5.2752 0.584961V9.66465L0.570068 8.91563V31.0381H4.01628V28.9634L2.60966 28.9599V11.3069L5.2752 11.7289L5.27872 31.0381H8.67922V28.9634L7.3148 28.9599V3.15203L22.3445 6.62637V10.8849L9.94166 8.91563V31.0381H29.0541V27.5849L27.011 27.2438Z" fill="#0A3356"/>
<path d="M25.6468 18.908C26.9373 19.7449 28.8117 20.1634 30.6649 20.1634C31.7976 20.167 32.9242 19.9975 34.0056 19.6605V18.0499C31.9414 18.9642 28.46 18.8622 26.7263 17.737C24.6445 16.3901 21.0753 16.1334 18.4167 16.9598V18.5774C20.4845 17.6842 23.9237 17.7932 25.6468 18.908Z" fill="#C8002D"/>
<path d="M26.7263 20.5221C24.6445 19.1753 21.0753 18.9186 18.4167 19.745V21.3626C20.4845 20.4694 23.9237 20.5784 25.6468 21.6931C26.9373 22.5301 28.8117 22.9485 30.6649 22.9485C31.7976 22.9522 32.9242 22.7826 34.0056 22.4457V20.8351C31.9414 21.7459 28.46 21.6474 26.7263 20.5221Z" fill="#C8002D"/>
<path d="M26.7263 23.3073C24.6445 21.9604 21.0753 21.7037 18.4167 22.5301V24.1477C20.4845 23.2545 23.9237 23.36 25.6468 24.4783C26.9373 25.3152 28.8117 25.7337 30.6649 25.7337C31.7976 25.7374 32.9242 25.5678 34.0056 25.2308V23.6202C31.9414 24.531 28.46 24.4326 26.7263 23.3073Z" fill="#C8002D"/>
</svg>
