<svg width="72" height="23" viewBox="0 0 72 23" fill="none" xmlns="http://www.w3.org/2000/svg">
<path d="M20.5258 0.175293V22.0477H34.125V16.8834H26.6407V13.5493H32.8498V8.38503H26.6407V5.3396H34.125V0.175293H20.5258Z" fill="#0669B1"/>
<path d="M9.45498 11.3393H9.39702C9.1217 9.59256 7.28142 0.175293 7.28142 0.175293H0.862183L6.0425 22.0477H12.2661L18.41 0.175293H11.7879C11.7879 0.175293 9.69407 9.59256 9.45498 11.3393Z" fill="#0669B1"/>
<path d="M48.5291 10.7318L53.4124 0.175293H46.9786L43.5734 7.861L43.4212 0.175293H37.4874V22.0477H43.4212V13.5645L47.4278 22.0477H53.9702L48.5291 10.7318Z" fill="#0669B1"/>
<path d="M61.2801 14.3923L63.0117 5.03582L64.5694 14.362L61.2801 14.3923ZM66.8662 0.175293H59.4471L53.9697 22.0477H60.2803L60.7947 19.2301H64.8882L65.3447 22.0477H71.6625L66.8662 0.175293Z" fill="#0669B1"/>
</svg>
