<svg width="51" height="51" viewBox="0 0 51 51" fill="none" xmlns="http://www.w3.org/2000/svg">
<g clip-path="url(#clip0_2531_9152)">
<mask id="mask0_2531_9152" style="mask-type:luminance" maskUnits="userSpaceOnUse" x="0" y="0" width="51" height="51">
<path d="M48.9999 49V2.00015H2V49H48.9999Z" fill="white" stroke="white" stroke-width="3"/>
</mask>
<g mask="url(#mask0_2531_9152)">
<path d="M11.039 27.698C10.8815 26.6011 10.412 25.5725 9.68649 24.7348C8.96098 23.8972 8.49153 22.8686 8.33406 21.7716C8.17659 20.6747 8.33774 19.5556 8.79831 18.5477C9.25887 17.5397 9.41998 16.4207 9.26247 15.3237C9.10499 14.2268 9.26614 13.1077 9.72672 12.0997C10.1873 11.0918 10.9279 10.2374 11.8603 9.6385C12.7927 9.03953 13.5332 8.18521 13.9938 7.17728C14.4544 6.16932 15.195 5.31499 16.1274 4.71606C17.0598 4.11712 18.1447 3.79882 19.2529 3.79907C20.3611 3.79928 21.4459 3.48098 22.3784 2.88208C23.3107 2.28313 24.3956 1.96481 25.5038 1.96503C26.612 1.96526 27.6968 2.28402 28.6289 2.88334C29.5611 3.48265 30.6459 3.80142 31.7541 3.8017C32.8623 3.80191 33.9471 4.12066 34.8792 4.71998C35.8113 5.31929 36.5516 6.17392 37.0117 7.18206C37.4718 8.19021 38.2121 9.04485 39.1442 9.64417C40.0764 10.2435 40.8166 11.0981 41.2768 12.1063C41.7369 13.1144 41.8976 14.2336 41.7396 15.3305C41.5817 16.4274 41.7424 17.5465 42.2025 18.5547C42.6627 19.5628 42.8233 20.682 42.6654 21.7788C42.5075 22.8757 42.0376 23.904 41.3117 24.7414C40.5858 25.5788 40.1159 26.6072 39.9579 27.7041C39.8 28.801 39.3301 29.8293 38.6042 30.6667C37.8783 31.504 36.927 32.1151 35.8637 32.4271C34.8003 32.7391 33.849 33.3502 33.1231 34.1875C32.3973 35.0249 31.446 35.636 30.3826 35.9479C29.3193 36.2599 28.1886 36.2597 27.1254 35.9472C26.0622 35.6348 24.9315 35.6346 23.8682 35.9466C22.8048 36.2586 21.6741 36.2584 20.6109 35.9459C19.5476 35.6335 18.5966 35.022 17.871 34.1843C17.1455 33.3467 16.1945 32.7352 15.1313 32.4228C14.0681 32.1104 13.117 31.4989 12.3915 30.6612C11.666 29.8235 11.1965 28.795 11.039 27.698Z" stroke="#76BC21" stroke-width="3" stroke-miterlimit="10" stroke-linecap="round" stroke-linejoin="round"/>
<path d="M25.4999 9.93527C30.5468 9.93527 34.6381 14.0266 34.6381 19.0734C34.6381 24.1203 30.5468 28.2116 25.4999 28.2116C20.4531 28.2116 16.3618 24.1203 16.3618 19.0734C16.3618 14.0266 20.4531 9.93527 25.4999 9.93527Z" stroke="#76BC21" stroke-width="3" stroke-miterlimit="10" stroke-linecap="round" stroke-linejoin="round"/>
<path d="M34.2883 33.5343V49.0352L25.4999 44.1095L16.7116 49.0352V33.8148" stroke="#76BC21" stroke-width="3" stroke-miterlimit="10" stroke-linecap="round" stroke-linejoin="round"/>
</g>
</g>
<defs>
<clipPath id="clip0_2531_9152">
<rect width="50" height="50" fill="white" transform="translate(0.5 0.5)"/>
</clipPath>
</defs>
</svg>
