<svg width="94" height="26" viewBox="0 0 94 26" fill="none" xmlns="http://www.w3.org/2000/svg">
<path d="M3.58355 12.2866C3.56406 12.0723 3.56406 11.8579 3.56406 11.6631C3.56406 9.81177 3.81739 8.2528 4.34355 7.00562C4.85022 5.77793 5.57124 4.88152 6.44817 4.3164C7.34458 3.75127 8.33843 3.47845 9.4492 3.47845C10.7548 3.47845 11.9046 3.8487 12.84 4.58922C13.7754 5.32973 14.5159 6.57691 15.0225 8.27229L15.0615 8.4087H15.802L15.3928 2.15332H14.6133L14.5743 2.30922C14.4964 2.67947 14.36 2.97178 14.1651 3.16666C14.0287 3.28358 13.8728 3.36153 13.6974 3.36153C13.6195 3.36153 13.4246 3.32255 13.0154 3.10819C11.7877 2.4846 10.521 2.17281 9.25433 2.17281C7.6174 2.17281 6.0974 2.58204 4.73329 3.38101C3.36919 4.17998 2.25842 5.32973 1.47893 6.81075C0.699437 8.27229 0.309692 9.88973 0.309692 11.6436C0.309692 11.8579 0.309692 12.0723 0.329179 12.3061L0.348667 12.4815H3.62252L3.58355 12.2866ZM9.23484 2.56255C10.4431 2.56255 11.6513 2.85486 12.8205 3.45896C13.2297 3.67332 13.4831 3.75127 13.6779 3.75127C13.9508 3.75127 14.2041 3.65383 14.4184 3.45896C14.6328 3.22512 14.7887 2.93281 14.8861 2.56255H15.0031L15.3733 8.03845H15.3343C14.8082 6.32358 14.0287 5.05691 13.0543 4.29691C12.0605 3.49793 10.8328 3.10819 9.42972 3.10819C8.26048 3.10819 7.18868 3.41999 6.23381 4.0046C5.27894 4.6087 4.51893 5.56358 3.97329 6.86922C3.42765 8.15537 3.15483 9.79229 3.15483 11.6825C3.15483 11.819 3.15483 11.9554 3.15483 12.1113H0.67995C0.67995 11.9554 0.660462 11.7995 0.660462 11.6436C0.660462 9.96768 1.05021 8.4087 1.79072 7.00562C2.55072 5.60255 3.58355 4.49178 4.90868 3.73178C6.21432 2.9523 7.67587 2.56255 9.23484 2.56255Z" fill="#482624"/>
<path d="M15.4309 15.5774C14.4176 16.9804 13.5017 17.9158 12.6832 18.3835C11.8453 18.8512 10.8904 19.0656 9.81861 19.0656C8.57143 19.0656 7.44117 18.7733 6.4863 18.1886C5.53142 17.604 4.79091 16.7466 4.30373 15.6553C3.99193 14.9343 3.77757 14.1353 3.66065 13.2584L3.64116 13.083H0.36731L0.406284 13.3169C0.640131 14.8174 1.20526 16.162 2.0627 17.3507C3.66065 19.5138 5.94066 20.6051 8.84425 20.6051C10.4617 20.6051 11.8648 20.2348 13.0535 19.5138C14.2227 18.7927 15.2555 17.643 16.1325 16.084L16.2299 15.9281L15.5284 15.4604L15.4309 15.5774Z" fill="#482624"/>
<path d="M24.1428 7.80176C23.1685 7.80176 22.2526 8.48381 21.3367 9.90637V7.80176H20.5767L16.8546 9.30227L17.0885 10.1402L17.2833 10.0623C17.8095 9.84791 18.2577 9.80893 18.5305 10.0233C18.6474 10.1207 18.7254 10.2571 18.7644 10.4715C18.8033 10.6079 18.8423 11.0366 18.8423 12.2838V12.4787H21.3367V11.7187C21.7264 10.9587 22.0967 10.413 22.4669 10.1012C22.6033 9.96483 22.7203 9.90637 22.8177 9.90637C22.8567 9.90637 23.0516 9.92586 23.5192 10.2961C23.9285 10.6274 24.2987 10.7833 24.63 10.7833C24.9808 10.7833 25.2926 10.6469 25.5654 10.3741C25.8187 10.1012 25.9552 9.76996 25.9552 9.39971C25.9552 8.97099 25.7798 8.60073 25.429 8.26945C25.0977 7.97714 24.6495 7.80176 24.1428 7.80176ZM23.7531 10.0038C23.3439 9.67252 23.0321 9.51663 22.8177 9.51663C22.6033 9.51663 22.389 9.61406 22.1941 9.82842C21.7849 10.1987 21.3951 10.7638 20.9664 11.6018L20.9469 11.6407V12.0889H19.2321C19.2321 11.173 19.1931 10.6079 19.1541 10.3935C19.0956 10.1012 18.9592 9.8674 18.7839 9.7115C18.4331 9.43868 17.9459 9.43868 17.3613 9.61406L17.3418 9.53611L20.6741 8.1915H20.9664V11.3679L21.3367 10.7248C22.2721 9.04894 23.2269 8.21099 24.1623 8.21099C24.591 8.21099 24.9223 8.32791 25.1757 8.58124C25.4485 8.83458 25.5654 9.1074 25.5654 9.41919C25.5654 9.69201 25.468 9.92586 25.2926 10.1207C25.0977 10.3156 24.8834 10.413 24.6495 10.413C24.3962 10.3935 24.0844 10.2571 23.7531 10.0038Z" fill="#482624"/>
<path d="M22.0581 19.124C21.8047 18.9876 21.6488 18.8317 21.5514 18.6368C21.3955 18.3445 21.337 17.8768 21.337 17.2532V13.0635H18.8427V17.3701C18.8427 18.1886 18.8232 18.4614 18.7842 18.5394C18.7063 18.7927 18.5893 18.9681 18.4139 19.085C18.1606 19.2409 17.7514 19.3383 17.2057 19.3383H17.0109V20.1763H23.3637V19.3383H23.1688C22.6816 19.3383 22.3114 19.2604 22.0581 19.124Z" fill="#482624"/>
<path d="M34.4715 16.4348L32.854 13.0635H30.1843L33.2633 19.5332L32.4643 21.4819C32.172 22.203 31.8797 22.6901 31.6069 22.924C31.334 23.1578 31.1002 23.2748 30.9053 23.2748C30.8858 23.2748 30.7884 23.2748 30.3402 23.0994C29.8335 22.9045 29.4243 22.8071 29.132 22.8071C28.6643 22.8071 28.294 22.924 28.0407 23.1773C27.7679 23.4306 27.6315 23.7619 27.6315 24.1712C27.6315 24.5999 27.8263 24.9896 28.1771 25.3014C28.5279 25.6132 28.9956 25.7886 29.5412 25.7886C30.2622 25.7886 31.0222 25.4768 31.8017 24.8727C32.5617 24.2881 33.1853 23.3917 33.653 22.2419L37.3946 13.0635H35.8356L34.4715 16.4348Z" fill="#482624"/>
<path d="M40.1025 8.99127V8.15332H35.9323V9.01076H36.1271C36.5364 9.01076 36.7312 9.04973 36.8092 9.08871C36.9261 9.12768 37.004 9.18614 37.043 9.2446C37.0625 9.26409 37.082 9.32255 37.082 9.45896C37.082 9.77076 37.0235 10.102 36.8871 10.4138L36.0687 12.4795H37.6276L38.3876 10.6282C38.641 9.98512 38.7579 9.75127 38.7969 9.69281C39.0307 9.38102 39.2061 9.24461 39.3035 9.18614C39.4594 9.08871 39.6738 9.03025 39.9466 9.01076L40.1025 8.99127ZM39.7128 8.6405C39.4594 8.67947 39.2451 8.75742 39.0892 8.85486C38.8943 8.97178 38.6799 9.18614 38.4656 9.47845C38.4071 9.5564 38.3097 9.75127 38.0174 10.4918L37.3743 12.0897H36.6533L37.2769 10.5697C37.4328 10.1995 37.5107 9.82922 37.5107 9.45896C37.5107 9.26409 37.4717 9.1082 37.3938 9.01076C37.3158 8.89384 37.1599 8.7964 36.9846 8.71845C36.8481 8.65999 36.6338 8.6405 36.361 8.62102V8.54306H39.7517V8.6405H39.7128Z" fill="#482624"/>
<path d="M28.507 9.88382C28.7798 10.2541 28.9747 10.5854 29.0916 10.8387L29.8711 12.4951H32.5604L31.8199 10.9751C31.547 10.4295 31.4106 9.98126 31.4106 9.68895C31.4106 9.49408 31.4886 9.33817 31.625 9.22125C31.7809 9.08484 32.0342 9.02638 32.3655 9.02638H32.8332V8.16895H27.026V8.98741L27.1819 9.02638C27.5911 9.12382 27.8834 9.24074 28.0588 9.35766C28.1563 9.41613 28.3122 9.59151 28.507 9.88382ZM27.4157 8.5392H32.4434V8.61715H32.3655C31.9368 8.61715 31.6055 8.71459 31.3717 8.90946C31.1378 9.10433 31.0209 9.37715 31.0209 9.66946C31.0209 10.0397 31.1573 10.5074 31.4691 11.131L31.9368 12.0859H30.144L29.4619 10.6633C29.3255 10.3905 29.1111 10.0397 28.8383 9.64997C28.6045 9.31869 28.4291 9.12382 28.2732 9.0069C28.0783 8.87049 27.8055 8.75356 27.4157 8.65612V8.5392Z" fill="#482624"/>
<path d="M45.402 13.3168L44.8954 13.0635H40.16L40.4328 13.3753C40.8615 13.8819 41.641 14.4081 42.8492 15.0122C44.0574 15.6163 44.8564 16.1035 45.2656 16.4932C45.6359 16.844 45.8308 17.2922 45.8308 17.8183C45.8308 18.2471 45.6749 18.5978 45.3436 18.9096C45.0123 19.2214 44.5836 19.3773 44.0574 19.3773C43.2779 19.3773 42.5764 19.1045 41.9333 18.5199C41.2902 17.9548 40.8615 17.0778 40.6277 15.9476L40.5887 15.7917H39.8092V20.3322H40.5497L40.6082 20.2348C40.7056 20.0399 40.8225 20.0204 40.9005 20.0204C41.0564 20.0204 41.2707 20.0594 41.5241 20.1373C42.44 20.3906 43.2779 20.5271 44.0184 20.5271C45.0513 20.5271 46.0061 20.1763 46.8246 19.5137C47.6626 18.8317 48.0913 17.9158 48.0913 16.805C48.0913 15.363 47.1949 14.1742 45.402 13.3168Z" fill="#482624"/>
<path d="M39.9269 12.4787H43.6295L42.9864 12.1084C42.5187 11.8356 42.1874 11.5823 42.0121 11.3484C41.7587 11.0366 41.6418 10.6859 41.6418 10.2571C41.6418 9.92586 41.7977 9.63355 42.1095 9.36073C42.4408 9.06842 42.8695 8.93201 43.4151 8.93201C44.1362 8.93201 44.7403 9.14637 45.208 9.5556C45.6757 9.98432 46.0849 10.8028 46.3772 11.9915L46.4162 12.1474H47.1762V7.80176H46.4357L46.3772 7.91868C46.2603 8.15253 46.1823 8.23047 46.1628 8.24996C46.1239 8.28893 46.0459 8.28894 45.968 8.28894C45.929 8.28894 45.7146 8.26945 45.169 8.11355C44.5064 7.91868 43.9218 7.82125 43.4541 7.82125C42.3628 7.82125 41.4469 8.17201 40.7649 8.83458C40.0828 9.51663 39.7321 10.3741 39.7321 11.3679C39.7321 11.7187 39.771 12.0305 39.849 12.3423L39.9269 12.4787ZM43.4931 8.1915C43.9218 8.1915 44.4675 8.28894 45.091 8.48381C45.3834 8.58124 45.7926 8.67868 46.0069 8.67868C46.1823 8.67868 46.3382 8.6397 46.4551 8.54227C46.5331 8.48381 46.6305 8.36689 46.7085 8.1915H46.8254V11.7577H46.7475C46.4357 10.5689 46.0069 9.73099 45.4808 9.2633C44.9351 8.77612 44.2531 8.54227 43.4346 8.54227C42.7916 8.54227 42.2654 8.71765 41.8757 9.06842C41.4664 9.41919 41.2716 9.80894 41.2716 10.2571C41.2716 10.7833 41.4274 11.2315 41.7198 11.6018C41.8367 11.7577 42.0121 11.933 42.2459 12.0889H40.2387C40.1803 11.8551 40.1608 11.6212 40.1608 11.3679C40.1608 10.452 40.4726 9.7115 41.0962 9.1074C41.7003 8.5033 42.4798 8.1915 43.4931 8.1915Z" fill="#482624"/>
<path d="M50.5868 12.4786H53.0812V9.41911H55.7899V8.13296H53.0812V4.31348H52.3601L52.3017 4.4304C51.9704 5.26835 51.6976 5.85296 51.5027 6.16476C51.1324 6.74937 50.7037 7.27552 50.236 7.70424C49.7683 8.13296 49.3201 8.42527 48.8719 8.62014L48.755 8.6786V9.41911H50.6063V12.4786H50.5868ZM49.1447 8.95142C49.593 8.75655 50.0606 8.44476 50.5089 8.01604C51.0155 7.56783 51.4637 7.02219 51.8535 6.3986C52.0483 6.0868 52.3017 5.52168 52.633 4.72271H52.7109V8.54219H55.4196V9.04886H52.7109V12.0889H50.996V9.02937H49.1447V8.95142Z" fill="#482624"/>
<path d="M55.2835 17.604C55.147 17.8963 54.9717 18.1301 54.7378 18.286C54.504 18.4419 54.2701 18.5199 54.0363 18.5199C53.744 18.5199 53.5296 18.4224 53.3542 18.1886C53.2178 18.0327 53.0814 17.6624 53.0814 16.7855V13.0635H50.587V17.0583C50.587 17.9353 50.6845 18.5589 50.8793 18.9876C51.0742 19.4163 51.3665 19.7671 51.7758 20.0009C52.185 20.2348 52.5942 20.3517 53.0229 20.3517C53.6465 20.3517 54.2506 20.1178 54.8158 19.6891C55.3809 19.2409 55.8291 18.5783 56.1409 17.7209L56.2383 17.4676H55.3419L55.2835 17.604Z" fill="#482624"/>
<path d="M58.4778 12.3423C58.848 12.3423 59.1598 12.2059 59.3937 11.9525C59.6275 11.6992 59.7444 11.3484 59.7444 10.9197L59.725 10.1792C59.725 9.8674 59.8614 9.57509 60.1537 9.34124C60.446 9.08791 60.8162 8.9515 61.2839 8.9515C61.927 8.9515 62.4142 9.14637 62.7455 9.53611C63.0768 9.92586 63.2521 10.6859 63.2521 11.7966V12.1279L62.3168 12.4787H65.727V11.9915C65.727 10.8418 65.6491 10.0818 65.4932 9.67253C65.2398 9.06842 64.8306 8.62022 64.3045 8.3474C63.6224 7.97714 62.7455 7.80176 61.6737 7.80176C60.2901 7.80176 59.1988 8.13304 58.4193 8.75663C57.6398 9.3997 57.2306 10.1207 57.2306 10.9197C57.2306 11.3484 57.3475 11.6992 57.5814 11.9525C57.7957 12.2253 58.1075 12.3423 58.4778 12.3423ZM61.6737 8.1915C62.6675 8.1915 63.5055 8.36689 64.1291 8.69817C64.5773 8.93201 64.928 9.32176 65.1424 9.82842C65.2398 10.0623 65.3568 10.6274 65.3568 11.9915V12.0889H63.6419V11.8161C63.6419 10.5884 63.447 9.76996 63.0378 9.30227C62.6285 8.81509 62.0439 8.58124 61.2839 8.58124C60.6993 8.58124 60.2316 8.73714 59.8809 9.06842C59.5106 9.39971 59.3352 9.76996 59.3352 10.2182L59.3547 10.9587C59.3547 11.29 59.2768 11.5433 59.1014 11.7187C58.9455 11.8941 58.7311 11.972 58.4583 11.972C58.2049 11.972 57.9906 11.8941 57.8347 11.6992C57.6788 11.5238 57.5814 11.251 57.5814 10.9392C57.5814 10.2766 57.9321 9.65304 58.6337 9.08791C59.3547 8.48381 60.368 8.1915 61.6737 8.1915Z" fill="#482624"/>
<path d="M67.7352 17.1168L67.4039 17.4481C66.7608 18.0912 66.5075 18.286 66.41 18.3445C66.3516 18.3835 66.2541 18.403 66.1567 18.403C66.0787 18.403 66.0008 18.3835 65.9423 18.325C65.9033 18.286 65.8449 18.2081 65.7864 17.9353C65.7669 17.7599 65.728 17.2727 65.728 15.9281V13.0635H60.8756L60.8367 13.083C60.0962 13.3948 59.4921 13.6871 59.0633 13.9599C58.1864 14.486 57.5433 15.0512 57.1926 15.6553C56.9197 16.1035 56.7833 16.6296 56.7833 17.2337C56.7833 18.1691 57.0561 18.9486 57.6213 19.5527C58.1864 20.1373 58.8879 20.4296 59.7454 20.4296C60.291 20.4296 60.7977 20.3127 61.2849 20.0983C61.6551 19.923 62.5126 19.2799 63.2726 18.6953C63.3116 19.2409 63.4674 19.6501 63.6818 19.9035C63.9741 20.2348 64.3444 20.4101 64.8121 20.4101C65.7475 20.4101 66.6828 19.7671 67.6962 18.4224L67.7352 18.364V17.1168ZM63.2531 13.3363V17.3896C62.2787 18.1691 61.4992 18.5589 60.9146 18.5589C60.4859 18.5589 60.1351 18.3835 59.8038 18.0132C59.4726 17.643 59.3167 17.1948 59.3167 16.6296C59.3167 16.1814 59.4531 15.7722 59.7064 15.4019C59.9792 15.0122 60.4469 14.6419 61.09 14.2912C61.4018 14.1158 62.0449 13.8235 62.9998 13.4337L63.2531 13.3363Z" fill="#482624"/>
<path d="M67.9692 3.96075C68.5148 3.74639 68.885 3.70742 69.1189 3.90229C69.1774 3.94127 69.2748 4.07768 69.3333 4.40896C69.3722 4.60383 69.4307 5.18844 69.4307 6.78639V12.4766H71.9251V1.71973H71.1261L67.443 3.23973L67.8327 4.0387L67.9692 3.96075ZM71.5158 2.10947V12.0869H69.8009V6.78639C69.8009 5.48075 69.762 4.64281 69.7035 4.33101C69.6451 3.98024 69.5281 3.74639 69.3527 3.60998C69.0409 3.35665 68.5927 3.33717 67.9886 3.55153L67.9497 3.45409L71.1845 2.12896H71.5158V2.10947Z" fill="#482624"/>
<path d="M72.7426 3.96075C73.2882 3.74639 73.6585 3.70742 73.8923 3.90229C73.9508 3.94127 74.0482 4.07768 74.1067 4.40896C74.1457 4.60383 74.2041 5.18844 74.2041 6.78639V12.4766H76.6985V1.71973H75.8995L72.2164 3.23973L72.6062 4.0387L72.7426 3.96075ZM76.2893 2.10947V12.0869H74.5744V6.78639C74.5744 5.48075 74.5354 4.64281 74.477 4.33101C74.4185 3.98024 74.3016 3.74639 74.1262 3.60998C73.8144 3.35665 73.3662 3.33717 72.7621 3.55153L72.7231 3.45409L75.958 2.12896H76.2893V2.10947Z" fill="#482624"/>
<path d="M77.2257 19.163C77.0503 19.0655 76.9139 18.9096 76.8164 18.7148C76.758 18.5589 76.68 18.2081 76.68 17.3507V13.0635H74.1857V17.3507C74.1857 18.2081 74.1077 18.5783 74.0298 18.7342C73.9323 18.9486 73.8154 19.1045 73.6595 19.1824C73.5816 19.2214 73.4257 19.2799 73.1139 19.2994C72.7241 19.2604 72.5487 19.2019 72.4513 19.163C72.2759 19.0655 72.1395 18.9096 72.0421 18.7148C71.9836 18.5589 71.9057 18.2081 71.9057 17.3507V13.0635H69.4113V17.3507C69.4113 18.2081 69.3333 18.5783 69.2554 18.7342C69.158 18.9486 69.041 19.1045 68.8851 19.1824C68.7682 19.2409 68.5149 19.3189 67.8913 19.3189H67.6964V20.1568H78.5703V19.3189H78.3754C77.6739 19.3383 77.3621 19.2409 77.2257 19.163Z" fill="#482624"/>
<path d="M79.9145 10.0623C80.4796 9.84791 80.8888 9.82842 81.1032 10.0038C81.2006 10.0818 81.2591 10.2377 81.3175 10.452C81.376 10.7443 81.415 11.3679 81.415 12.2838V12.4787H83.9093V7.80176H83.1104L79.3883 9.30227L79.7196 10.1207L79.9145 10.0623ZM83.5391 8.1915V12.0889H81.8047C81.7852 11.2315 81.7658 10.6859 81.6878 10.3741C81.6099 10.0623 81.5124 9.82842 81.337 9.7115C81.0447 9.45816 80.577 9.43868 79.934 9.65304L79.895 9.5556L83.1883 8.21099H83.5391V8.1915Z" fill="#482624"/>
<path d="M84.4561 19.1824C84.2807 19.085 84.1638 18.9486 84.0663 18.7342C84.0079 18.5783 83.9299 18.2276 83.9299 17.3507V13.0635H81.4356V17.3507C81.4356 18.0327 81.3771 18.5004 81.2797 18.7342C81.1822 18.9486 81.0653 19.1045 80.9094 19.1824C80.812 19.2409 80.5586 19.3189 79.8571 19.3189H79.6622V20.1568H85.7033V19.3189H85.5084C84.8653 19.3383 84.573 19.2409 84.4561 19.1824Z" fill="#482624"/>
<path d="M88.0404 12.4786H90.5348V9.41911H93.2435V8.13296H90.5348V4.31348H89.8138L89.7553 4.4304C89.424 5.26835 89.1512 5.85296 88.9563 6.16476C88.5861 6.74937 88.1573 7.27552 87.6896 7.70424C87.222 8.13296 86.7737 8.42527 86.3255 8.62014L86.2086 8.6786V9.41911H88.0599V12.4786H88.0404ZM86.5789 8.95142C87.0271 8.75655 87.4948 8.44476 87.943 8.01604C88.4497 7.56783 88.8979 7.02219 89.2876 6.3986C89.4825 6.0868 89.7358 5.52168 90.0671 4.72271H90.145V8.54219H92.8538V9.04886H90.145V12.0889H88.4302V9.02937H86.5789V8.95142Z" fill="#482624"/>
<path d="M92.776 17.4676L92.7175 17.5845C92.5811 17.8768 92.4057 18.1107 92.1719 18.2666C91.9381 18.4225 91.7042 18.5004 91.4704 18.5004C91.178 18.5004 90.9637 18.403 90.7883 18.1691C90.6519 18.0132 90.5155 17.643 90.5155 16.766V13.0635H88.0211V17.0583C88.0211 17.9353 88.1186 18.5589 88.3134 18.9876C88.5083 19.4163 88.8006 19.7671 89.2098 20.0009C89.6191 20.2348 90.0283 20.3517 90.457 20.3517C91.0806 20.3517 91.6847 20.1178 92.2498 19.6891C92.815 19.2409 93.2632 18.5783 93.575 17.7209L93.6724 17.4676H92.776Z" fill="#482624"/>
<path d="M82.2534 6.10533H82.5067C82.5067 4.60482 83.7149 3.39662 85.2155 3.39662V3.14329C83.7149 3.14329 82.5067 1.93508 82.5067 0.43457H82.2534C82.2534 1.93508 81.0452 3.14329 79.5447 3.14329V3.39662C81.0452 3.39662 82.2534 4.62431 82.2534 6.10533Z" fill="#482624"/>
</svg>
