<svg width="108" height="42" viewBox="0 0 108 42" fill="none" xmlns="http://www.w3.org/2000/svg">
<path d="M0.668701 31.7868L2.15331 14.832H9.0129C11.6471 14.832 13.6113 15.5629 14.9056 17.0247C16.1999 18.4864 16.7252 20.5801 16.4892 23.3133C16.2532 26.0464 15.3548 28.1401 13.8093 29.6018C12.2638 31.0636 10.1701 31.7945 7.53592 31.7945H0.668701V31.7868ZM4.62764 28.6882H7.34558C10.6345 28.6882 12.4313 26.8915 12.7434 23.3056C12.8957 21.5774 12.5988 20.2451 11.8679 19.3163C11.1294 18.3875 9.93412 17.923 8.28964 17.923H5.57168L4.62764 28.6882Z" fill="black"/>
<path d="M32.493 14.832L32.2266 17.8773H23.1972L22.8774 21.5698H31.1683L30.9094 24.5009H22.6262L22.2607 28.6654H31.45L31.1759 31.7869H18.2942L19.7788 14.832H32.493Z" fill="black"/>
<path d="M47.3159 19.8783H43.791C43.7986 18.1958 42.8012 17.3507 40.7989 17.3507C39.9386 17.3507 39.2534 17.5182 38.7433 17.8608C38.2256 18.2034 37.9439 18.6754 37.8906 19.2769C37.8754 19.4824 37.8907 19.6651 37.9363 19.825C37.9896 19.9849 38.0962 20.1295 38.2561 20.2666C38.416 20.4036 38.5835 20.5102 38.751 20.6016C38.9184 20.6853 39.1697 20.7843 39.4971 20.8909C39.832 20.9975 40.129 21.0888 40.403 21.1649C40.6695 21.2411 41.0578 21.3477 41.5527 21.4771C42.0475 21.6065 42.4815 21.7207 42.8545 21.8349C44.4838 22.3145 45.6715 22.9084 46.4252 23.624C47.1789 24.3397 47.4987 25.3599 47.3845 26.6998C47.3007 27.6667 47.0266 28.5118 46.5698 29.235C46.113 29.9583 45.5268 30.5293 44.8112 30.948C44.0955 31.3668 43.3342 31.6789 42.5119 31.8768C41.6897 32.0748 40.8294 32.1738 39.9234 32.1738C37.6242 32.1738 35.8655 31.6484 34.6702 30.5902C33.4673 29.532 32.942 28.0474 33.0943 26.1288H36.7867C36.6649 28.2529 37.8526 29.3188 40.3421 29.3188C41.309 29.3188 42.0932 29.1132 42.6947 28.7097C43.2961 28.3062 43.6235 27.7505 43.6844 27.0576C43.7377 26.4714 43.5169 26.0451 43.022 25.771C42.5272 25.5045 41.4765 25.1315 39.8701 24.6518C39.6036 24.5909 39.4057 24.53 39.2687 24.4843C38.7129 24.3245 38.3246 24.2103 38.1114 24.1417C37.8983 24.0732 37.5557 23.9438 37.0836 23.7763C36.6116 23.6012 36.2766 23.4413 36.0635 23.2967C35.8503 23.152 35.599 22.9541 35.2945 22.7028C34.99 22.4516 34.7768 22.1851 34.6626 21.9034C34.5408 21.6294 34.4418 21.2867 34.3581 20.8756C34.2743 20.4721 34.2515 20.0306 34.2972 19.5509C34.4342 18.013 35.1346 16.7797 36.4061 15.8585C37.6775 14.9373 39.2991 14.4805 41.2634 14.4805C43.1667 14.4805 44.6817 14.9297 45.8161 15.828C46.9429 16.7112 47.4454 18.0663 47.3159 19.8783Z" fill="black"/>
<path d="M64.9015 25.2443C64.5285 27.3684 63.6301 29.0661 62.2216 30.3147C60.8132 31.5709 58.9707 32.1952 56.702 32.1952C54.2429 32.1952 52.3319 31.3806 50.9768 29.7513C49.6216 28.1221 49.0582 25.9675 49.2942 23.2876C49.515 20.7448 50.4591 18.6359 52.1264 16.9534C53.7937 15.2709 55.8874 14.4258 58.4074 14.4258C60.4249 14.4258 62.0618 14.9968 63.3256 16.1388C64.5894 17.2808 65.2213 18.7349 65.2061 20.4936H61.5593C61.4527 19.5571 61.0873 18.8339 60.4782 18.3162C59.8615 17.7985 59.0545 17.5396 58.0572 17.5396C57.0218 17.5396 56.131 17.8289 55.3773 18.4075C54.6159 18.9861 54.0602 19.6942 53.7023 20.5393C53.3445 21.3843 53.1161 22.2979 53.0324 23.3029C52.8801 25.0463 53.1618 26.4396 53.8851 27.4826C54.6007 28.5256 55.6437 29.0433 57.0141 29.0433C59.2829 29.0433 60.6914 27.7719 61.2319 25.2366H64.9015V25.2443Z" fill="black"/>
<path d="M76.0173 14.4297C78.4916 14.4297 80.4254 15.2519 81.8186 16.8964C83.2042 18.5409 83.7828 20.6878 83.5544 23.3372C83.3184 25.9867 82.3668 28.126 80.6918 29.7552C79.0169 31.3845 76.9309 32.1991 74.4413 32.1991C71.9365 32.1991 69.9799 31.3845 68.579 29.7552C67.1782 28.126 66.5996 25.9867 66.828 23.3372C67.064 20.6574 68.0157 18.5028 69.6906 16.8736C71.3655 15.2443 73.4744 14.4297 76.0173 14.4297ZM75.6975 17.475C74.3043 17.475 73.1394 18.0003 72.2106 19.0434C71.2894 20.094 70.7488 21.4948 70.589 23.2611C70.4291 25.0883 70.7184 26.512 71.4493 27.5474C72.1801 28.5828 73.2764 29.1005 74.7154 29.1157C76.1314 29.1157 77.2887 28.5904 78.187 27.5474C79.0854 26.4968 79.6184 25.0731 79.7782 23.2611C79.9305 21.4796 79.6412 20.0712 78.9103 19.0357C78.187 17.9927 77.1136 17.475 75.6975 17.475Z" fill="black"/>
<path d="M86.981 14.832H95.409C97.0915 14.832 98.4314 15.2279 99.4212 16.0197C100.411 16.8115 100.845 18.022 100.7 19.636C100.616 20.6182 100.304 21.4784 99.7562 22.2169C99.2156 22.9554 98.5076 23.4808 97.6397 23.8005C99.071 24.105 99.7942 25.4221 99.7942 27.7518C99.7866 27.8279 99.779 28.0792 99.779 28.4903C99.7714 28.9014 99.779 29.2364 99.7866 29.48C99.7942 29.7236 99.8095 30.0206 99.8247 30.3708C99.8399 30.721 99.8856 31.0103 99.9617 31.2539C100.038 31.4899 100.129 31.665 100.251 31.7792H96.3911C96.2845 31.528 96.216 31.2006 96.1931 30.8123C96.1703 30.4241 96.1551 29.9216 96.1551 29.3125C96.1551 28.7035 96.1703 28.3609 96.1703 28.2999C96.1475 27.1123 95.9191 26.2824 95.4927 25.8256C95.0664 25.3688 94.2517 25.1328 93.0641 25.1328H89.7523L89.1737 31.7792H85.4812L86.981 14.832ZM90.4146 17.7556L90.0035 22.4453H93.5285C94.5639 22.4453 95.3785 22.2855 95.9876 21.9581C96.5966 21.6307 96.9392 20.9912 97.023 20.0395C97.0991 19.1488 96.8707 18.5473 96.3378 18.2276C95.8049 17.9078 95.0587 17.7479 94.1071 17.7479H90.4146V17.7556Z" fill="black"/>
<path d="M104.995 13.2266C105.421 13.2266 105.825 13.3332 106.198 13.5463C106.571 13.7595 106.853 14.064 107.043 14.4675C107.233 14.8634 107.309 15.2821 107.271 15.7161C107.233 16.1501 107.089 16.5612 106.83 16.9571C106.571 17.353 106.244 17.6575 105.832 17.8783C105.421 18.0991 104.995 18.2057 104.561 18.2057C104.127 18.2057 103.724 18.0991 103.351 17.8783C102.977 17.6575 102.696 17.353 102.513 16.9571C102.33 16.5612 102.254 16.1501 102.292 15.7161C102.33 15.2821 102.483 14.8634 102.741 14.4675C103 14.0716 103.335 13.7595 103.746 13.5463C104.15 13.3332 104.569 13.2266 104.995 13.2266ZM104.957 13.7138C104.614 13.7138 104.279 13.7976 103.952 13.9727C103.625 14.1478 103.351 14.3914 103.145 14.7112C102.939 15.0309 102.818 15.3659 102.787 15.7161C102.757 16.0663 102.818 16.4013 102.962 16.7134C103.115 17.0332 103.335 17.2768 103.64 17.4519C103.944 17.627 104.264 17.7184 104.614 17.7184C104.965 17.7184 105.307 17.627 105.635 17.4519C105.962 17.2768 106.236 17.0256 106.442 16.7134C106.647 16.3937 106.761 16.0663 106.792 15.7161C106.822 15.3659 106.761 15.0309 106.609 14.7112C106.457 14.3914 106.228 14.1478 105.931 13.9727C105.619 13.7976 105.3 13.7138 104.957 13.7138ZM103.533 17.0484L103.762 14.4066H104.302C104.805 14.4066 105.086 14.4066 105.147 14.4142C105.322 14.4295 105.459 14.4675 105.551 14.5208C105.642 14.5741 105.718 14.6579 105.772 14.7721C105.825 14.8863 105.848 15.0157 105.84 15.1527C105.825 15.3431 105.749 15.5106 105.612 15.64C105.475 15.777 105.292 15.8608 105.064 15.8912C105.14 15.9217 105.201 15.9521 105.239 15.9902C105.277 16.0283 105.33 16.0968 105.399 16.1957C105.414 16.2186 105.467 16.3252 105.566 16.5155L105.832 17.0484H105.17L104.987 16.6221C104.866 16.3328 104.751 16.1501 104.668 16.0815C104.584 16.013 104.454 15.9674 104.31 15.9674H104.173L104.081 17.056H103.533V17.0484ZM104.203 15.5486H104.424C104.736 15.5486 104.926 15.5334 105.003 15.5106C105.079 15.4877 105.14 15.442 105.193 15.3887C105.239 15.3278 105.269 15.2593 105.277 15.1832C105.284 15.1071 105.269 15.0461 105.231 14.9852C105.193 14.9243 105.14 14.8863 105.064 14.8634C104.987 14.8406 104.797 14.8254 104.493 14.8254H104.272L104.203 15.5486Z" fill="black"/>
<path d="M0.70752 35.4023H1.75054L2.81641 39.8409L4.0117 35.4023H5.04711L6.20434 39.8409L7.30065 35.4023H8.33607L6.72205 41.2265H5.68664L4.50657 36.7499L3.30366 41.2265H2.24541L0.70752 35.4023Z" fill="black"/>
<path d="M11.4352 35.3906L13.6888 41.2224H12.5924L12.0367 39.6769H9.72984L9.15884 41.2224H8.10059L10.3541 35.3906H11.4352ZM11.7626 38.908L10.8947 36.4565L9.98869 38.908H11.7626Z" fill="black"/>
<path d="M18.2179 40.3434V41.2265H14.2285V35.4023H15.2563V40.3434H18.2179Z" fill="black"/>
<path d="M22.9156 40.3434V41.2265H18.9263V35.4023H19.9541V40.3434H22.9156Z" fill="black"/>
<path d="M30.0347 38.45C29.9891 39.0286 29.8292 39.5082 29.5627 39.8813L30.7047 41.2288H29.5627L29.0222 40.5741C28.5882 41.0918 28.0401 41.3506 27.3853 41.3506C26.8676 41.3506 26.4336 41.1984 26.0834 40.8938C25.7332 40.5893 25.5581 40.1782 25.5581 39.6605C25.5581 39.2798 25.6799 38.9372 25.9235 38.6403C26.1672 38.3434 26.4869 38.1074 26.8828 37.9247C26.4945 37.4526 26.3042 37.0187 26.3042 36.638C26.3042 36.265 26.4413 35.9528 26.7077 35.7092C26.9742 35.4656 27.3244 35.3438 27.7431 35.3438C28.1543 35.3438 28.4892 35.4656 28.7557 35.7092C29.0222 35.9528 29.1516 36.265 29.1516 36.638C29.1516 37.2623 28.809 37.7648 28.1238 38.1302L29.0146 39.2342C29.1135 39.0286 29.182 38.7621 29.2201 38.4424H30.0347V38.45ZM27.3625 38.5261C27.0808 38.686 26.8676 38.8459 26.7077 39.0134C26.5478 39.1809 26.4717 39.3864 26.4717 39.6377C26.4717 39.8965 26.5631 40.1097 26.7534 40.3C26.9437 40.4903 27.1645 40.5741 27.431 40.5741C27.8421 40.5741 28.1999 40.3609 28.5197 39.9422L27.3625 38.5261ZM27.6518 37.5745C28.101 37.308 28.3294 37.0034 28.3294 36.6761C28.3294 36.4934 28.2761 36.3487 28.1619 36.2269C28.0477 36.1127 27.9106 36.0518 27.7431 36.0518C27.568 36.0518 27.4234 36.1051 27.3092 36.2117C27.195 36.3183 27.1341 36.4553 27.1341 36.6228C27.1341 36.8284 27.2939 37.1253 27.6137 37.5288L27.6518 37.5745Z" fill="black"/>
<path d="M38.4703 39.0155C38.417 39.7311 38.1581 40.3021 37.7089 40.7285C37.2521 41.1548 36.6659 41.368 35.935 41.368C35.1128 41.368 34.4504 41.0863 33.9556 40.5305C33.4607 39.9747 33.2095 39.2363 33.2095 38.3151C33.2095 37.7593 33.3161 37.2492 33.5292 36.8C33.7424 36.3508 34.0622 35.9778 34.4885 35.6961C34.9148 35.4144 35.4097 35.2773 35.9883 35.2773C36.605 35.2773 37.1456 35.4448 37.6024 35.7874C38.0592 36.13 38.3332 36.6173 38.4322 37.2644H37.4196C37.3511 36.9142 37.1836 36.6401 36.9324 36.4422C36.6735 36.2442 36.3614 36.1453 35.9807 36.1453C35.5924 36.1453 35.2651 36.2519 34.9986 36.4726C34.7321 36.6934 34.5342 36.9599 34.4276 37.2796C34.3134 37.5994 34.2601 37.9496 34.2601 38.3227C34.2601 38.6044 34.2906 38.8708 34.3591 39.1221C34.4276 39.3733 34.519 39.6017 34.656 39.8149C34.7854 40.0281 34.9682 40.1955 35.1889 40.3173C35.4173 40.4392 35.6762 40.5077 35.9807 40.5077C36.8486 40.5077 37.3435 40.0128 37.4729 39.0155H38.4703Z" fill="black"/>
<path d="M43.5694 35.4023V36.2626H40.3871V37.8081H43.341V38.638H40.3871V40.3586H43.6227V41.2341H39.3745V35.41H43.5694V35.4023Z" fill="black"/>
<path d="M45.5805 35.4023V41.2265H44.5527V35.4023H45.5805Z" fill="black"/>
<path d="M50.796 40.3434V41.2265H46.8066V35.4023H47.8344V40.3434H50.796Z" fill="black"/>
<path d="M52.5468 35.4023V41.2265H51.519V35.4023H52.5468Z" fill="black"/>
<path d="M58.5092 35.4023V41.2265H57.451L54.733 36.9402V41.2265H53.7661V35.4023H54.8396L57.5271 39.6962V35.4023H58.5092Z" fill="black"/>
<path d="M64.8038 38.1171V41.2309H64.1491L63.9968 40.5381C63.5324 41.0939 62.9309 41.3756 62.1772 41.3756C61.3626 41.3756 60.6926 41.0939 60.1825 40.5381C59.6724 39.9824 59.4136 39.2591 59.4136 38.3607C59.4136 37.4852 59.6724 36.7467 60.1825 36.1605C60.6926 35.5743 61.3854 35.2773 62.2609 35.2773C62.8929 35.2773 63.4486 35.4525 63.9206 35.8103C64.3927 36.1681 64.6591 36.6477 64.7277 37.2568H63.7379C63.677 36.9066 63.5171 36.6325 63.2507 36.4346C62.9842 36.2366 62.6568 36.1376 62.2533 36.1376C61.6899 36.1376 61.2484 36.3356 60.9286 36.7239C60.6089 37.1198 60.449 37.6527 60.449 38.3379C60.449 39.0231 60.6089 39.5636 60.9362 39.9519C61.2636 40.3402 61.7128 40.5381 62.2914 40.5381C62.8015 40.5381 63.1898 40.3783 63.4638 40.0661C63.7379 39.7464 63.875 39.3581 63.875 38.8937H62.3066V38.1095H64.8038V38.1171Z" fill="black"/>
<path d="M72.3645 37.1156H71.39C71.3291 36.4305 70.9104 36.0955 70.1186 36.0955C69.7684 36.0955 69.4943 36.1716 69.3039 36.3086C69.106 36.4533 69.007 36.6512 69.007 36.9025C69.007 37.1385 69.0755 37.2984 69.2202 37.3821C69.3648 37.4659 69.6846 37.5724 70.1795 37.7019C70.3089 37.7399 70.4079 37.7704 70.484 37.7856C71.1311 37.9531 71.5727 38.0978 71.8087 38.2272C72.3264 38.5089 72.5853 38.9428 72.5853 39.5291C72.5853 39.7879 72.5396 40.0163 72.4558 40.2219C72.3721 40.4274 72.2503 40.6025 72.1056 40.7396C71.961 40.8766 71.7859 40.9908 71.5803 41.0898C71.3748 41.1888 71.1692 41.2497 70.9484 41.2877C70.7276 41.3258 70.5068 41.3486 70.2708 41.3486C69.5399 41.3486 68.9461 41.1735 68.4969 40.8233C68.0477 40.4731 67.8193 39.963 67.8193 39.2854H68.8243C68.8243 39.7118 68.9613 40.0239 69.243 40.2295C69.5247 40.435 69.8826 40.534 70.3317 40.534C70.7276 40.534 71.0322 40.4503 71.2529 40.2904C71.4737 40.1305 71.5879 39.9021 71.5879 39.6128C71.5879 39.4301 71.527 39.2778 71.4128 39.156C71.2986 39.0418 71.1692 38.9581 71.0322 38.9048C70.8951 38.8591 70.6591 38.7906 70.3165 38.6992C70.2784 38.6916 70.248 38.6764 70.2251 38.6764C69.5019 38.4936 69.0222 38.3414 68.7938 38.2196C68.3218 37.9759 68.063 37.5953 68.0325 37.0852C68.0325 37.0471 68.0325 37.0091 68.0325 36.971C68.0325 36.4533 68.2305 36.0422 68.6187 35.73C69.007 35.4179 69.5323 35.2656 70.1871 35.2656C70.819 35.2656 71.3367 35.4179 71.7326 35.7148C72.1361 36.0346 72.3416 36.499 72.3645 37.1156Z" fill="black"/>
<path d="M78.2265 35.4023L76.0338 38.9121V41.2265H75.0288V38.9121L72.8286 35.4023H74.0087L75.5542 37.9832L77.0845 35.4023H78.2265Z" fill="black"/>
<path d="M82.9694 37.1156H81.9949C81.934 36.4305 81.5153 36.0955 80.7235 36.0955C80.3733 36.0955 80.0992 36.1716 79.9089 36.3086C79.711 36.4533 79.612 36.6512 79.612 36.9025C79.612 37.1385 79.6805 37.2984 79.8252 37.3821C79.9698 37.4659 80.2896 37.5724 80.7844 37.7019C80.9139 37.7399 81.0128 37.7704 81.089 37.7856C81.7361 37.9531 82.1777 38.0978 82.4137 38.2272C82.9314 38.5089 83.1902 38.9428 83.1902 39.5291C83.1902 39.7879 83.1446 40.0163 83.0608 40.2219C82.9771 40.4274 82.8552 40.6025 82.7106 40.7396C82.5659 40.8766 82.3908 40.9908 82.1853 41.0898C81.9797 41.1888 81.7742 41.2497 81.5534 41.2877C81.3326 41.3258 81.1118 41.3486 80.8758 41.3486C80.1449 41.3486 79.5511 41.1735 79.1019 40.8233C78.6527 40.4731 78.4243 39.963 78.4243 39.2854H79.4293C79.4293 39.7118 79.5663 40.0239 79.848 40.2295C80.1297 40.435 80.4875 40.534 80.9367 40.534C81.3326 40.534 81.6371 40.4503 81.8579 40.2904C82.0787 40.1305 82.1929 39.9021 82.1929 39.6128C82.1929 39.4301 82.132 39.2778 82.0178 39.156C81.9036 39.0418 81.7742 38.9581 81.6371 38.9048C81.5001 38.8591 81.2641 38.7906 80.9215 38.6992C80.8834 38.6916 80.8529 38.6764 80.8301 38.6764C80.1068 38.4936 79.6272 38.3414 79.3988 38.2196C78.9268 37.9759 78.6679 37.5953 78.6375 37.0852C78.6375 37.0471 78.6375 37.0091 78.6375 36.971C78.6375 36.4533 78.8354 36.0422 79.2237 35.73C79.612 35.4179 80.1373 35.2656 80.792 35.2656C81.424 35.2656 81.9417 35.4179 82.3375 35.7148C82.7411 36.0346 82.9466 36.499 82.9694 37.1156Z" fill="black"/>
<path d="M88.2672 35.4023V36.2855H86.4096V41.2265H85.3894V36.2855H83.5317V35.4023H88.2672Z" fill="black"/>
<path d="M93.1246 35.4023V36.2626H89.9422V37.8081H92.8962V38.638H89.9422V40.3586H93.1779V41.2341H88.9297V35.41H93.1246V35.4023Z" fill="black"/>
<path d="M100.145 35.4023V41.2265H99.1707V36.7347L97.549 41.2265H96.7116L95.0519 36.7347V41.2265H94.085V35.4023H95.5163L97.1455 39.9627L98.7139 35.4023H100.145Z" fill="black"/>
<path d="M3.98755 5.84197C3.98755 5.84197 6.1878 2.72814 9.13416 2.46167C13.5118 2.20282 13.5194 3.51232 16.2983 3.31438C18.1103 3.18495 21.0642 0.847656 21.0642 0.847656C21.0642 0.847656 18.7955 4.29649 17.151 4.88272C13.7478 6.10084 13.1616 4.4259 9.81935 4.48681C5.83759 4.57056 3.98755 5.84197 3.98755 5.84197Z" fill="black"/>
<path d="M3.22632 8.84197C3.22632 8.84197 5.42657 5.72814 8.37293 5.46167C12.7506 5.20282 12.7582 6.51232 15.5371 6.31438C17.349 6.18495 20.303 3.84766 20.303 3.84766C20.303 3.84766 18.0342 7.29649 16.3897 7.88272C12.9866 9.10084 12.4004 7.4259 9.05812 7.48681C5.07636 7.57056 3.22632 8.84197 3.22632 8.84197Z" fill="black"/>
</svg>
