<svg width="20" height="20" viewBox="0 0 20 20" fill="none" xmlns="http://www.w3.org/2000/svg">
<g clip-path="url(#clip0_2348_10517)">
<mask id="mask0_2348_10517" style="mask-type:luminance" maskUnits="userSpaceOnUse" x="0" y="0" width="20" height="20">
<path d="M19.3499 19.35V0.650059H0.65V19.35H19.3499Z" fill="white" stroke="white" stroke-width="1.3"/>
</mask>
<g mask="url(#mask0_2348_10517)">
<path d="M19.2187 13.8411H16.1848C14.8904 13.8411 13.8411 14.8905 13.8411 16.1849V19.2187M19.2187 13.8411C19.2187 14.3283 19.1228 14.8106 18.9363 15.2606C18.7499 15.7107 18.4767 16.1196 18.1323 16.464L16.464 18.1323C16.1195 18.4768 15.7106 18.75 15.2606 18.9364C14.8106 19.1228 14.3282 19.2188 13.8411 19.2187M19.2187 13.8411V4.6934C19.2187 3.65585 18.8065 2.6608 18.0729 1.92712C17.3392 1.19348 16.3442 0.781319 15.3066 0.781303H4.69335C3.6558 0.781319 2.66074 1.19348 1.92707 1.92712C1.19343 2.6608 0.781266 3.65585 0.78125 4.6934V15.3067C0.781266 16.3442 1.19343 17.3393 1.92707 18.0729C2.66074 18.8066 3.6558 19.2187 4.69335 19.2187H13.8411M5.39061 14.6094H9.99997M5.39061 5.39067H14.6093M5.39061 10H14.6093" stroke="#135EE4" stroke-width="1.3" stroke-miterlimit="10" stroke-linecap="round" stroke-linejoin="round"/>
</g>
</g>
<defs>
<clipPath id="clip0_2348_10517">
<rect width="20" height="20" fill="white"/>
</clipPath>
</defs>
</svg>
