<svg width="50" height="50" viewBox="0 0 50 50" fill="none" xmlns="http://www.w3.org/2000/svg">
<path d="M25 6.25C24.7237 6.25 24.4588 6.14025 24.2634 5.9449C24.0681 5.74955 23.9583 5.4846 23.9583 5.20833V1.04167C23.9583 0.765399 24.0681 0.500448 24.2634 0.305097C24.4588 0.109747 24.7237 0 25 0C25.2763 0 25.5412 0.109747 25.7366 0.305097C25.9319 0.500448 26.0417 0.765399 26.0417 1.04167V5.20833C26.0417 5.4846 25.9319 5.74955 25.7366 5.9449C25.5412 6.14025 25.2763 6.25 25 6.25ZM38.9958 12.0458C38.79 12.0458 38.5887 11.9847 38.4175 11.8704C38.2463 11.7561 38.1129 11.5936 38.0339 11.4034C37.955 11.2133 37.9342 11.004 37.9742 10.8021C38.0141 10.6001 38.113 10.4145 38.2583 10.2687L41.2042 7.32292C41.4006 7.13317 41.6637 7.02817 41.9369 7.03055C42.21 7.03292 42.4713 7.14247 42.6644 7.33561C42.8575 7.52874 42.9671 7.79 42.9695 8.06312C42.9718 8.33624 42.8668 8.59937 42.6771 8.79583L39.7312 11.7417C39.6347 11.8383 39.5201 11.9149 39.3939 11.9671C39.2677 12.0193 39.1324 12.046 38.9958 12.0458ZM48.9583 26.0417H44.7917C44.5154 26.0417 44.2504 25.9319 44.0551 25.7366C43.8597 25.5412 43.75 25.2763 43.75 25C43.75 24.7237 43.8597 24.4588 44.0551 24.2634C44.2504 24.0681 44.5154 23.9583 44.7917 23.9583H48.9583C49.2346 23.9583 49.4995 24.0681 49.6949 24.2634C49.8903 24.4588 50 24.7237 50 25C50 25.2763 49.8903 25.5412 49.6949 25.7366C49.4995 25.9319 49.2346 26.0417 48.9583 26.0417ZM41.9417 42.9833C41.6653 42.9834 41.4002 42.874 41.2042 42.6792L38.2583 39.7333C38.0686 39.5369 37.9636 39.2737 37.966 39.0006C37.9683 38.7275 38.0779 38.4662 38.271 38.2731C38.4642 38.08 38.7254 37.9704 38.9985 37.968C39.2717 37.9657 39.5348 38.0707 39.7312 38.2604L42.6771 41.2062C42.8223 41.3519 42.9211 41.5373 42.9611 41.7391C43.0011 41.9408 42.9805 42.1499 42.9019 42.34C42.8232 42.53 42.6901 42.6926 42.5192 42.807C42.3483 42.9215 42.1474 42.9829 41.9417 42.9833ZM25 50C24.7237 50 24.4588 49.8903 24.2634 49.6949C24.0681 49.4995 23.9583 49.2346 23.9583 48.9583V44.7917C23.9583 44.5154 24.0681 44.2504 24.2634 44.0551C24.4588 43.8597 24.7237 43.75 25 43.75C25.2763 43.75 25.5412 43.8597 25.7366 44.0551C25.9319 44.2504 26.0417 44.5154 26.0417 44.7917V48.9583C26.0417 49.2346 25.9319 49.4995 25.7366 49.6949C25.5412 49.8903 25.2763 50 25 50ZM8.05833 42.9833C7.85247 42.9833 7.65123 42.9222 7.48004 42.8079C7.30884 42.6936 7.17536 42.5311 7.09645 42.3409C7.01754 42.1508 6.99674 41.9415 7.03668 41.7396C7.07661 41.5376 7.17549 41.352 7.32083 41.2062L10.2667 38.2604C10.4631 38.0707 10.7263 37.9657 10.9994 37.968C11.2725 37.9704 11.5338 38.08 11.7269 38.2731C11.92 38.4662 12.0296 38.7275 12.032 39.0006C12.0343 39.2737 11.9293 39.5369 11.7396 39.7333L8.79375 42.6792C8.69722 42.7758 8.58257 42.8524 8.45637 42.9046C8.33017 42.9568 8.1949 42.9835 8.05833 42.9833ZM5.20833 26.0417H1.04167C0.765399 26.0417 0.500448 25.9319 0.305097 25.7366C0.109747 25.5412 0 25.2763 0 25C0 24.7237 0.109747 24.4588 0.305097 24.2634C0.500448 24.0681 0.765399 23.9583 1.04167 23.9583H5.20833C5.4846 23.9583 5.74955 24.0681 5.9449 24.2634C6.14025 24.4588 6.25 24.7237 6.25 25C6.25 25.2763 6.14025 25.5412 5.9449 25.7366C5.74955 25.9319 5.4846 26.0417 5.20833 26.0417ZM11.0042 12.0458C10.7278 12.0459 10.4627 11.9365 10.2667 11.7417L7.32292 8.79583C7.13317 8.59937 7.02817 8.33624 7.03055 8.06312C7.03292 7.79 7.14247 7.52874 7.33561 7.33561C7.52874 7.14247 7.79 7.03292 8.06312 7.03055C8.33624 7.02817 8.59937 7.13317 8.79583 7.32292L11.7417 10.2687C11.887 10.4145 11.9859 10.6001 12.0258 10.8021C12.0658 11.004 12.045 11.2133 11.9661 11.4034C11.8871 11.5936 11.7537 11.7561 11.5825 11.8704C11.4113 11.9847 11.21 12.0458 11.0042 12.0458ZM22.0271 41.6667C21.8788 41.6667 21.7322 41.6352 21.5971 41.574C21.4621 41.5129 21.3416 41.4236 21.2438 41.3122C21.1459 41.2008 21.073 41.0698 21.0299 40.9279C20.9868 40.786 20.9745 40.6366 20.9937 40.4896L22.7708 27.0833H15.625C15.4315 27.0833 15.2419 27.0295 15.0774 26.9278C14.9128 26.8261 14.7798 26.6805 14.6933 26.5075C14.6068 26.3345 14.5702 26.1408 14.5875 25.9481C14.6049 25.7554 14.6756 25.5714 14.7917 25.4167L27.2917 8.75C27.4314 8.56246 27.6301 8.42738 27.8559 8.36649C28.0816 8.30561 28.3213 8.32246 28.5364 8.41435C28.7514 8.50623 28.9293 8.6678 29.0413 8.87304C29.1534 9.07828 29.1931 9.31526 29.1542 9.54583L27.2708 20.8333H34.375C34.5634 20.8329 34.7485 20.8836 34.9104 20.9801C35.0723 21.0765 35.205 21.2151 35.2943 21.381C35.3837 21.5469 35.4264 21.734 35.4178 21.9222C35.4093 22.1105 35.3499 22.2929 35.2458 22.45L22.8979 41.2C22.8025 41.3435 22.673 41.4612 22.5211 41.5426C22.3692 41.6241 22.1995 41.6667 22.0271 41.6667ZM17.7083 25H23.9583C24.1068 24.9999 24.2536 25.0315 24.3888 25.0928C24.5241 25.154 24.6447 25.2435 24.7425 25.3551C24.8404 25.4668 24.9132 25.5981 24.9562 25.7402C24.9992 25.8823 25.0113 26.032 24.9917 26.1792L23.6562 36.2583L32.4417 22.9167H26.0417C25.8905 22.9166 25.7411 22.8836 25.6039 22.82C25.4667 22.7564 25.345 22.6637 25.2473 22.5483C25.1496 22.4329 25.0781 22.2976 25.0379 22.1519C24.9978 22.0061 24.9898 21.8533 25.0146 21.7042L26.3958 13.4167L17.7083 25Z" fill="#76BC21"/>
</svg>
