<svg width="285" height="70" viewBox="0 0 285 70" fill="none" xmlns="http://www.w3.org/2000/svg">
<g clip-path="url(#clip0_2115_9347)">
<path d="M0 0.22168V69.9051H58.6096V0.22168H0ZM51.8319 63.1462H6.76083V6.96384H51.8319V63.1462Z" fill="white"/>
<path d="M45.071 13.7061H13.5216V56.4041H45.071V13.7061Z" fill="#76BC21"/>
<path d="M76.083 26.3023C77.2244 27.3727 78.5676 28.2065 80.0346 28.7552C81.6244 29.3487 83.3104 29.644 85.0078 29.6264C86.6834 29.6448 88.3475 29.3493 89.9138 28.7552C91.3673 28.2035 92.6992 27.3749 93.8352 26.3157C94.9481 25.2682 95.8344 24.0047 96.4394 22.6028C97.0757 21.128 97.3961 19.537 97.3802 17.9316C97.4002 16.3279 97.0796 14.7382 96.4394 13.267C95.8242 11.8787 94.939 10.6259 93.8352 9.58095C92.7033 8.5131 91.3705 7.67942 89.9138 7.12804C86.7303 5.96188 83.2349 5.96188 80.0514 7.12804C78.5855 7.67906 77.2427 8.51255 76.0997 9.58095C74.9897 10.6217 74.1057 11.8786 73.5023 13.2737C72.2701 16.2527 72.2701 19.597 73.5023 22.576C74.0992 23.9803 74.9774 25.2483 76.083 26.3023ZM78.4351 14.9928C78.7768 14.1353 79.2888 13.3556 79.9405 12.7007C80.5831 12.0597 81.3488 11.5548 82.1919 11.2162C83.0834 10.8634 84.0352 10.687 84.9943 10.6968C85.9588 10.6879 86.916 10.8642 87.8136 11.2162C88.6596 11.5491 89.4265 12.0548 90.065 12.7007C90.7082 13.3591 91.2142 14.1381 91.5536 14.9928C92.2662 16.8887 92.2662 18.9778 91.5536 20.8737C91.2177 21.7284 90.7104 22.5057 90.0627 23.158C89.4149 23.8103 88.6405 24.3238 87.7867 24.667C86.895 25.0187 85.9431 25.1939 84.9843 25.1831C84.0211 25.193 83.065 25.0178 82.1684 24.667C81.3213 24.3346 80.5541 23.8276 79.917 23.1792C79.2677 22.5185 78.7601 21.733 78.425 20.8704C77.7126 18.9802 77.7126 16.8964 78.425 15.0062L78.4351 14.9928Z" fill="white"/>
<path d="M121.198 6.62891H115.66L109.712 15.7704H105.942V6.62891H100.727V29.2413H105.942V20.13H109.558L115.465 29.2413H121.423L113.788 17.5497L121.198 6.62891Z" fill="white"/>
<path d="M142.821 9.56777C141.689 8.49992 140.356 7.66624 138.899 7.11486C135.716 5.94869 132.221 5.94869 129.037 7.11486C127.571 7.66587 126.228 8.49937 125.085 9.56777C123.97 10.6115 123.083 11.8731 122.478 13.2739C121.246 16.253 121.246 19.5972 122.478 22.5762C123.079 23.9778 123.961 25.2423 125.069 26.2925C126.21 27.3629 127.553 28.1967 129.02 28.7454C130.61 29.3388 132.296 29.6342 133.993 29.6166C135.669 29.635 137.333 29.3394 138.899 28.7454C140.353 28.1937 141.685 27.3651 142.821 26.3059C143.934 25.2584 144.82 23.9948 145.425 22.593C146.061 21.1182 146.382 19.5272 146.366 17.9217C146.386 16.3181 146.065 14.7284 145.425 13.2572C144.81 11.8677 143.925 10.6137 142.821 9.56777ZM140.519 20.8739C140.184 21.7277 139.679 22.5044 139.033 23.1566C138.387 23.8089 137.614 24.3229 136.762 24.6672C135.871 25.0189 134.919 25.1942 133.96 25.1833C132.997 25.1933 132.041 25.0181 131.144 24.6672C130.297 24.3348 129.53 23.8278 128.893 23.1794C128.243 22.5187 127.736 21.7332 127.401 20.8706C126.688 18.9804 126.688 16.8966 127.401 15.0064C127.742 14.1489 128.254 13.3693 128.906 12.7143C129.549 12.0733 130.314 11.5684 131.157 11.2298C132.049 10.8771 133.001 10.7006 133.96 10.7105C134.924 10.7015 135.881 10.8779 136.779 11.2298C137.625 11.5627 138.392 12.0684 139.03 12.7143C139.674 13.3727 140.18 14.1518 140.519 15.0064C141.232 16.9023 141.232 18.9914 140.519 20.8873V20.8739Z" fill="white"/>
<path d="M155.012 19.9691H165.314V29.2413H170.56V6.62891H165.314V15.5425H155.012V6.62891H149.767V29.2413H155.012V19.9691Z" fill="white"/>
<path d="M196.377 29.2413V6.62891H191.128V15.5425H180.829V6.62891H175.583V29.2413H180.829V19.9691H191.128V29.2413H196.377Z" fill="white"/>
<path d="M229.058 6.62891H223.843V29.2413H229.058V6.62891Z" fill="white"/>
<path d="M218.729 15.8843C217.237 14.669 215.12 14.0602 212.378 14.058H206.612V6.62891H201.4V29.2413H211.635C214.548 29.2413 216.83 28.5711 218.484 27.2307C220.137 25.8903 220.964 23.93 220.964 21.3497C220.964 18.9214 220.219 17.0996 218.729 15.8843ZM214.525 24.3622C213.746 25.0324 212.687 25.3675 211.35 25.3675H206.612V17.9317H211.343C212.704 17.9317 213.766 18.2065 214.535 18.7594C215.305 19.3123 215.681 20.207 215.681 21.4402C215.681 22.6733 215.295 23.6954 214.525 24.3622Z" fill="white"/>
<path d="M249.825 29.2413H255.003V6.62891H250.08L239.264 21.3564V6.62891H234.048V29.2413H239.005L249.825 14.5439V29.2413Z" fill="white"/>
<path d="M239.768 3.89084C240.769 4.75315 242.351 5.1832 244.512 5.18096C246.674 5.17873 248.25 4.74868 249.24 3.89084C250.255 3.02852 250.774 1.811 250.796 0.238281H247.201C247.214 0.565666 247.157 0.892155 247.035 1.19606C246.912 1.49997 246.726 1.77432 246.488 2.00088C245.925 2.43467 245.222 2.64697 244.512 2.59737C243.616 2.59737 242.952 2.39853 242.52 2.00088C242.287 1.77174 242.104 1.49662 241.984 1.19312C241.863 0.889609 241.808 0.564403 241.821 0.238281H238.229C238.249 1.80877 238.762 3.02629 239.768 3.89084Z" fill="white"/>
<path d="M94.571 40.2725H89.0333L83.0857 49.4139H79.3155V40.2725H74.1003V62.8848H79.3155V53.7735H82.9311L88.8384 62.8848H94.7961L87.1617 51.1933L94.571 40.2725Z" fill="white"/>
<path d="M116.194 43.2112C115.063 42.1409 113.73 41.305 112.273 40.7516C109.089 39.5854 105.594 39.5854 102.411 40.7516C100.945 41.3026 99.6018 42.1361 98.4588 43.2045C97.3415 44.2503 96.4536 45.5156 95.8513 46.9207C94.6191 49.8997 94.6191 53.244 95.8513 56.223C96.4516 57.624 97.3333 58.8876 98.442 59.9359C99.5824 61.0084 100.926 61.8435 102.394 62.3921C103.983 62.9856 105.669 63.281 107.367 63.2634C109.042 63.2817 110.707 62.9862 112.273 62.3921C113.726 61.8405 115.058 61.0119 116.194 59.9526C117.308 58.9046 118.195 57.6413 118.802 56.2397C119.437 54.7645 119.757 53.1738 119.743 51.5685C119.766 50.003 119.463 48.4498 118.852 47.0075C118.241 45.5652 117.336 44.2655 116.194 43.1911V43.2112ZM113.892 54.5174C113.553 55.3759 113.041 56.156 112.387 56.8094C111.746 57.4528 110.98 57.9591 110.136 58.2972C109.244 58.6489 108.292 58.8242 107.333 58.8133C106.37 58.8233 105.414 58.6481 104.517 58.2972C103.67 57.9648 102.903 57.4578 102.266 56.8094C101.618 56.148 101.112 55.3626 100.777 54.5006C100.061 52.6112 100.061 50.5258 100.777 48.6364C101.112 47.7849 101.618 47.0104 102.263 46.3604C102.909 45.7105 103.68 45.1988 104.531 44.8565C105.423 44.5067 106.375 44.3315 107.333 44.3405C108.297 44.3321 109.254 44.5073 110.153 44.8565C110.998 45.1918 111.765 45.6984 112.404 46.3443C113.047 47.0027 113.553 47.7818 113.892 48.6364C114.605 50.5323 114.605 52.6215 113.892 54.5174Z" fill="white"/>
<path d="M138.688 49.186H128.385V40.2725H123.14V62.8848H128.385V53.6127H138.688V62.8848H143.937V40.2725H138.688V49.186Z" fill="white"/>
<path d="M146.625 44.5382H153.849V62.8848H159.031V44.5382H166.285V40.2725H146.625V44.5382Z" fill="white"/>
<path d="M174.155 55V40.2725H168.94V62.8848H173.897L184.717 48.1875V62.8848H189.898V40.2725H184.975L174.155 55Z" fill="white"/>
<path d="M210.433 49.186H200.133V40.2725H194.888V62.8848H200.133V53.6127H210.433V62.8848H215.681V40.2725H210.433V49.186Z" fill="white"/>
<path d="M225.917 53.4518H236.444V49.3804H225.917V44.4712H237.839V40.2725H220.705V62.8848H238.259V58.686H225.917V53.4518Z" fill="white"/>
<path d="M257.402 49.186H247.1V40.2725H241.854V62.8848H247.1V53.6127H257.402V62.8848H262.648V40.2725H257.402V49.186Z" fill="white"/>
<path d="M284.997 40.2725H265.336V44.5382H272.56V62.8848H277.742V44.5382H284.997V40.2725Z" fill="white"/>
</g>
<defs>
<clipPath id="clip0_2115_9347">
<rect width="285" height="69.6667" fill="white" transform="translate(0 0.22168)"/>
</clipPath>
</defs>
</svg>
