<svg width="209" height="52" viewBox="0 0 209 52" fill="none" xmlns="http://www.w3.org/2000/svg">
<g clip-path="url(#clip0_1545_7559)">
<path d="M0 0V51.5517H42.968V0H0ZM38.0101 46.5627H4.95794V4.98903H38.0101V46.5627Z" fill="#003595"/>
<path d="M33.0521 9.97805H9.91589V41.5736H33.0521V9.97805Z" fill="#76BC21"/>
<path d="M55.8014 19.299C56.617 20.0801 57.583 20.6851 58.6993 21.1141C59.8155 21.5455 61.0328 21.7588 62.3463 21.7588C63.6597 21.7588 64.8449 21.5455 65.9464 21.1141C67.0479 20.6851 68.0065 20.0825 68.8221 19.3089C69.6378 18.5377 70.2735 17.6203 70.7319 16.5614C71.1927 15.5002 71.4219 14.3496 71.4219 13.1073C71.4219 11.865 71.1927 10.6971 70.7319 9.65317C70.2735 8.60924 69.6353 7.69674 68.8221 6.91565C68.0065 6.13456 67.0479 5.52953 65.9464 5.10056C64.8449 4.6691 63.6375 4.45585 62.3241 4.45585C61.0107 4.45585 59.8229 4.6691 58.714 5.10056C57.6052 5.52953 56.6392 6.13456 55.8162 6.91565C54.9931 7.69674 54.3549 8.6142 53.9039 9.66557C53.453 10.7169 53.2288 11.865 53.2288 13.1073C53.2288 14.3496 53.453 15.4977 53.9039 16.549C54.3549 17.6004 54.9882 18.5179 55.8063 19.299H55.8014ZM57.5115 10.9327C57.7727 10.2805 58.1399 9.71268 58.6155 9.23659C59.0911 8.75802 59.6406 8.39104 60.2665 8.13563C60.8924 7.88023 61.5774 7.75377 62.3216 7.75377C63.0658 7.75377 63.7558 7.88271 64.3891 8.13563C65.0224 8.39104 65.5719 8.75802 66.0401 9.23659C66.5058 9.71268 66.8705 10.2805 67.1317 10.9327C67.3929 11.5873 67.5235 12.3113 67.5235 13.1073C67.5235 13.9033 67.3929 14.6298 67.1317 15.2844C66.8705 15.9366 66.5033 16.5044 66.0278 16.9805C65.5546 17.4591 65.0026 17.8261 64.3767 18.0815C63.7508 18.3369 63.0658 18.4633 62.3216 18.4633C61.5774 18.4633 60.8899 18.3369 60.2566 18.0815C59.6209 17.8261 59.0713 17.4591 58.6056 16.9805C58.1374 16.5044 57.7752 15.9316 57.514 15.272C57.2528 14.61 57.1222 13.8909 57.1222 13.1073C57.1222 12.3237 57.2528 11.5873 57.514 10.9327H57.5115Z" fill="#003595"/>
<path d="M88.8788 4.74104H84.8177L80.4559 11.5055H77.691V4.74104H73.8665V21.4736H77.691V14.734H80.3426L84.6723 21.4736H89.0439L83.4451 12.8222L88.8788 4.74104Z" fill="#003595"/>
<path d="M104.732 6.91557C103.917 6.13448 102.958 5.52945 101.857 5.10047C100.755 4.66901 99.5478 4.45576 98.2344 4.45576C96.9209 4.45576 95.7332 4.66901 94.6243 5.10047C93.5154 5.52945 92.5495 6.13448 91.7264 6.91557C90.9034 7.69665 90.2652 8.61412 89.8142 9.66549C89.3633 10.7169 89.139 11.8649 89.139 13.1072C89.139 14.3495 89.3633 15.4976 89.8142 16.549C90.2652 17.6003 90.8985 18.5178 91.7166 19.2989C92.5322 20.08 93.4982 20.685 94.6145 21.114C95.7307 21.5454 96.9481 21.7587 98.2615 21.7587C99.5749 21.7587 100.76 21.5454 101.862 21.114C102.963 20.685 103.922 20.0825 104.737 19.3088C105.553 18.5376 106.189 17.6202 106.647 16.5614C107.108 15.5001 107.337 14.3495 107.337 13.1072C107.337 11.8649 107.108 10.697 106.647 9.65309C106.189 8.60916 105.551 7.69665 104.737 6.91557H104.732ZM103.044 15.2819C102.783 15.934 102.416 16.5019 101.94 16.9779C101.467 17.4565 100.915 17.8235 100.289 18.0789C99.6636 18.3343 98.9785 18.4608 98.2344 18.4608C97.4902 18.4608 96.8027 18.3343 96.1694 18.0789C95.5336 17.8235 94.9841 17.4565 94.5184 16.9779C94.0502 16.5019 93.6879 15.9291 93.4267 15.2695C93.1655 14.6099 93.0349 13.8883 93.0349 13.1047C93.0349 12.3212 93.1655 11.5847 93.4267 10.9301C93.6879 10.278 94.0551 9.71012 94.5307 9.23403C95.0063 8.75546 95.5558 8.38847 96.1817 8.13307C96.8076 7.87767 97.4926 7.75121 98.2368 7.75121C98.981 7.75121 99.671 7.88015 100.304 8.13307C100.938 8.38847 101.487 8.75546 101.955 9.23403C102.421 9.71012 102.786 10.278 103.047 10.9301C103.308 11.5847 103.439 12.3088 103.439 13.1047C103.439 13.9007 103.308 14.6272 103.047 15.2819H103.044Z" fill="#003595"/>
<path d="M113.675 14.6125H121.231V21.4736H125.077V4.74104H121.231V11.3369H113.675V4.74104H109.828V21.4736H113.675V14.6125Z" fill="#003595"/>
<path d="M144.01 21.4736V4.74104H140.161V11.3369H132.608V4.74104H128.761V21.4736H132.608V14.6125H140.161V21.4736H144.01Z" fill="#003595"/>
<path d="M167.976 4.74104H164.152V21.4736H167.976V4.74104Z" fill="#003595"/>
<path d="M160.4 11.5898C159.308 10.6897 157.756 10.2384 155.745 10.2384H151.516V4.74104H147.692V21.4736H155.198C157.337 21.4736 159.01 20.9802 160.222 19.9908C161.435 19.0039 162.039 17.5533 162.039 15.6391C162.039 13.8388 161.492 12.4899 160.4 11.5898ZM157.312 17.8633C156.743 18.3567 155.964 18.6047 154.983 18.6047H151.516V13.1049H154.983C155.981 13.1049 156.763 13.3082 157.324 13.7149C157.886 14.1215 158.167 14.7861 158.167 15.711C158.167 16.6359 157.881 17.3674 157.312 17.8633Z" fill="#003595"/>
<path d="M183.205 21.4736H187.005V4.74104H183.392L175.46 15.6391V4.74104H171.635V21.4736H175.27L183.205 10.598V21.4736Z" fill="#003595"/>
<path d="M175.827 2.71017C176.564 3.34744 177.722 3.66731 179.306 3.66731C180.891 3.66731 182.029 3.34744 182.774 2.71017C183.518 2.0729 183.897 1.17279 183.915 0.00984192H181.278C181.263 0.582639 181.088 1.01658 180.755 1.31165C180.423 1.60673 179.94 1.75303 179.306 1.75303C178.673 1.75303 178.17 1.60673 177.845 1.31165C177.52 1.01658 177.35 0.582639 177.333 0.00984192H174.696C174.711 1.17279 175.088 2.0729 175.824 2.71017H175.827Z" fill="#003595"/>
<path d="M69.3524 29.6366H65.2913L60.932 36.401H58.1646V29.6366H54.3401V46.3692H58.1646V39.627H60.8162L65.1484 46.3692H69.5175L63.9187 37.7177L69.3524 29.6366Z" fill="#003595"/>
<path d="M85.209 31.8112C84.3933 31.0302 83.4348 30.4251 82.3333 29.9961C81.2318 29.5647 80.0243 29.3514 78.7109 29.3514C77.3975 29.3514 76.2098 29.5647 75.1009 29.9961C73.992 30.4251 73.026 31.0302 72.203 31.8112C71.38 32.5923 70.7417 33.5098 70.2908 34.5612C69.8398 35.6125 69.6156 36.7606 69.6156 38.0029C69.6156 39.2452 69.8398 40.3933 70.2908 41.4446C70.7417 42.496 71.375 43.4135 72.1931 44.1946C73.0088 44.9756 73.9747 45.5807 75.091 46.0097C76.2073 46.4411 77.4246 46.6544 78.738 46.6544C80.0514 46.6544 81.2367 46.4411 82.3382 46.0097C83.4397 45.5807 84.3983 44.9781 85.2139 44.2045C86.0295 43.4333 86.6653 42.5158 87.1236 41.457C87.5844 40.3958 87.8136 39.2452 87.8136 38.0029C87.8136 36.7606 87.5844 35.5927 87.1236 34.5488C86.6653 33.5048 86.0271 32.5923 85.2139 31.8112H85.209ZM83.521 40.1775C83.2598 40.8297 82.8926 41.3975 82.417 41.8736C81.9439 42.3522 81.3919 42.7192 80.766 42.9746C80.1401 43.23 79.4551 43.3564 78.7109 43.3564C77.9667 43.3564 77.2792 43.23 76.6459 42.9746C76.0102 42.7192 75.4606 42.3522 74.9949 41.8736C74.5267 41.3975 74.1645 40.8247 73.9033 40.1651C73.6421 39.5031 73.5115 38.784 73.5115 38.0004C73.5115 37.2169 73.6421 36.4804 73.9033 35.8258C74.1645 35.1736 74.5317 34.6058 75.0072 34.1297C75.4828 33.6511 76.0323 33.2841 76.6582 33.0287C77.2841 32.7733 77.9692 32.6469 78.7134 32.6469C79.4576 32.6469 80.1475 32.7758 80.7808 33.0287C81.4141 33.2841 81.9636 33.6511 82.4318 34.1297C82.8976 34.6058 83.2623 35.1736 83.5235 35.8258C83.7847 36.4804 83.9153 37.2045 83.9153 38.0004C83.9153 38.7964 83.7847 39.5229 83.5235 40.1775H83.521Z" fill="#003595"/>
<path d="M101.704 36.2324H94.1512V29.6366H90.302V46.3692H94.1512V39.508H101.704V46.3692H105.553V29.6366H101.704V36.2324Z" fill="#003595"/>
<path d="M107.525 32.7931H112.823V46.3691H116.623V32.7931H121.943V29.6365H107.525V32.7931Z" fill="#003595"/>
<path d="M127.713 40.5345V29.6365H123.889V46.3691H127.524L135.459 35.4934V46.3691H139.259V29.6365H135.648L127.713 40.5345Z" fill="#003595"/>
<path d="M154.317 36.2324H146.764V29.6366H142.917V46.3692H146.764V39.508H154.317V46.3692H158.166V29.6366H154.317V36.2324Z" fill="#003595"/>
<path d="M165.672 39.389H173.393V36.3762H165.672V32.7435H174.415V29.6366H161.85V46.3692H174.723V43.2622H165.672V39.389Z" fill="#003595"/>
<path d="M188.762 36.2324H181.206V29.6366H177.36V46.3692H181.206V39.508H188.762V46.3692H192.609V29.6366H188.762V36.2324Z" fill="#003595"/>
<path d="M209.001 29.6366H194.582V32.7931H199.878V46.3692H203.678V32.7931H209.001V29.6366Z" fill="#003595"/>
</g>
<defs>
<clipPath id="clip0_1545_7559">
<rect width="209" height="51.5517" fill="white"/>
</clipPath>
</defs>
</svg>
