<svg width="109" height="26" viewBox="0 0 109 26" fill="none" xmlns="http://www.w3.org/2000/svg">
<path d="M0.166748 13.1115C0.166748 6.02822 5.90885 0.286133 12.9921 0.286133C20.0754 0.286133 25.8175 6.02822 25.8175 13.1115C25.8175 20.1947 20.0754 25.9368 12.9921 25.9368C5.90885 25.9368 0.166748 20.1947 0.166748 13.1115Z" fill="#009E59"/>
<path d="M0.844482 13.1104C0.844482 6.40113 6.28257 0.961914 12.993 0.961914C19.7022 0.961914 25.1403 6.40113 25.1403 13.1104C25.1403 19.8196 19.7022 25.2588 12.993 25.2588C6.28257 25.2588 0.844482 19.8196 0.844482 13.1104Z" fill="white"/>
<path d="M1.70386 13.1143C1.70386 6.88007 6.75761 1.8252 12.9919 1.8252C19.2273 1.8252 24.2811 6.88007 24.2811 13.1143C24.2811 19.3486 19.2273 24.4023 12.9919 24.4023C6.75761 24.4023 1.70386 19.3486 1.70386 13.1143Z" fill="#009E59"/>
<path d="M7.47897 15.3016C6.66555 16.1758 6.56345 17.1625 6.77799 18.5357C6.77799 18.5667 6.83878 18.6677 6.83878 18.6677C6.83878 18.6677 6.77798 18.6069 6.6862 18.5667C5.8418 18.0677 5.24178 17.1326 5.22113 16.1758C5.2108 15.4943 5.4047 14.8645 5.87164 14.4365C5.94277 14.3757 6.0552 14.3253 6.0552 14.3253C6.0552 14.3253 5.97374 14.3448 5.89228 14.3654C4.48801 14.7119 3.6551 13.8881 2.93232 13.2376C2.85086 13.1654 2.79005 13.1459 2.72925 13.1149C2.79005 13.1046 2.85086 13.0839 2.93232 12.9921C3.6551 12.3519 4.48801 11.5179 5.89228 11.8632C5.97374 11.8839 6.0552 11.9148 6.0552 11.9148C6.0552 11.9148 5.94277 11.8529 5.87164 11.7932C5.4047 11.3653 5.2108 10.7343 5.22113 10.0631C5.24178 9.09714 5.8418 8.18161 6.6862 7.66305C6.77798 7.62175 6.83878 7.56094 6.83878 7.56094C6.83878 7.56094 6.77799 7.66305 6.77799 7.69288C6.56345 9.06616 6.66555 10.0631 7.47897 10.9477C8.69967 12.2395 11.2019 11.7313 11.7721 11.9447C11.4772 11.5385 12.1782 8.88375 10.8256 7.6011C9.93987 6.79801 8.94403 6.68672 7.57074 6.90011C7.53977 6.90011 7.43767 6.96092 7.43767 6.96092C7.43767 6.96092 7.49961 6.90011 7.53976 6.80833C8.05833 5.96394 8.97501 5.36391 9.93987 5.34326C10.6122 5.33409 11.242 5.52683 11.67 5.99492C11.7308 6.06605 11.7916 6.17733 11.7916 6.17733C11.7916 6.17733 11.7617 6.09702 11.7411 6.01442C11.3946 4.61131 12.2287 3.78756 12.8907 3.0556C12.9618 2.97415 12.9824 2.91334 12.9916 2.85254C13.0226 2.91334 13.0421 2.97415 13.1144 3.0556C13.7649 3.78756 14.5886 4.61131 14.2433 6.01442C14.2226 6.09702 14.1928 6.17733 14.1928 6.17733C14.1928 6.17733 14.2525 6.06605 14.3351 5.99492C14.7412 5.52683 15.3734 5.33409 16.0537 5.34326C17.0094 5.36391 17.9456 5.96394 18.4435 6.80833C18.4848 6.90011 18.5456 6.96092 18.5456 6.96092C18.5456 6.96092 18.4435 6.90011 18.4136 6.90011C17.0404 6.68672 16.0537 6.7785 15.1795 7.6011C13.8165 8.87342 14.4968 11.4869 14.2123 11.9447C14.7412 11.7014 17.2641 12.2602 18.5054 10.9477C19.3292 10.0631 19.4405 9.06616 19.2064 7.69288C19.2064 7.66305 19.1456 7.56094 19.1456 7.56094C19.1456 7.56094 19.2064 7.62175 19.2982 7.66305C20.1632 8.18161 20.7633 9.09714 20.7736 10.0631C20.7736 10.7343 20.5797 11.3653 20.1116 11.7932C20.0405 11.8529 19.9292 11.9148 19.9292 11.9148C19.9292 11.9148 20.0198 11.8839 20.1013 11.8632C21.5159 11.5179 22.3293 12.3519 23.0613 12.9921C23.1427 13.0839 23.1943 13.1046 23.2551 13.1149C23.1943 13.1459 23.1427 13.1654 23.0613 13.2376C22.3293 13.8881 21.5159 14.7119 20.1013 14.3654C20.0198 14.3448 19.9292 14.3253 19.9292 14.3253C19.9292 14.3253 20.0405 14.3757 20.1116 14.4365C20.5797 14.8645 20.7736 15.4943 20.7736 16.1758C20.7633 17.1326 20.1632 18.0677 19.2982 18.5667C19.2064 18.6069 19.1456 18.6677 19.1456 18.6677C19.1456 18.6677 19.2064 18.5667 19.2064 18.5357C19.4405 17.1625 19.3292 16.1758 18.5054 15.3016C17.2847 13.9685 14.7515 14.518 14.2123 14.2943C14.5278 14.7016 13.8062 17.3563 15.1795 18.6275C16.0537 19.4409 17.0404 19.5637 18.4136 19.3296C18.4435 19.3296 18.5456 19.2688 18.5456 19.2688C18.5456 19.2688 18.4848 19.3297 18.4435 19.4214C17.9456 20.2853 17.0094 20.8658 16.0537 20.8957C15.3734 20.8957 14.7412 20.7029 14.3351 20.2348C14.2525 20.1637 14.1928 20.0513 14.1928 20.0513C14.1928 20.0513 14.2226 20.1327 14.2433 20.2245C14.5886 21.638 13.7649 22.4514 13.1144 23.1845C13.0421 23.2659 13.0226 23.3267 12.9916 23.3772C12.9824 23.3267 12.9618 23.2659 12.8907 23.1845C12.2287 22.4514 11.3946 21.638 11.7411 20.2245C11.7617 20.1327 11.7916 20.0513 11.7916 20.0513C11.7916 20.0513 11.7308 20.1637 11.67 20.2348C11.242 20.7029 10.6122 20.8957 9.93987 20.8957C8.97501 20.8658 8.05833 20.2853 7.53976 19.4214C7.49961 19.3297 7.43767 19.2688 7.43767 19.2688C7.43767 19.2688 7.53977 19.3296 7.57074 19.3296C8.94403 19.5637 9.93987 19.4409 10.8256 18.6275C12.1782 17.3563 11.4772 14.7119 11.7721 14.2943C11.2019 14.518 8.69967 13.9891 7.47897 15.3016Z" fill="white"/>
<path d="M35.3739 2.87598C34.8243 2.87598 33.7023 2.93334 32.7351 2.93334C31.8196 2.96432 30.6414 2.96202 30.6414 2.96202V3.3062H31.215C31.8965 3.3062 32.0468 3.4955 32.0468 4.48216V12.5417C32.0468 13.2748 31.8517 13.7177 31.1289 13.7177H30.6987V14.0619H35.0297V13.7177H34.5134C33.9031 13.7177 33.5095 13.2955 33.5095 12.5131V9.12861C33.8962 9.25022 34.2931 9.35806 35.2591 9.35806C37.1912 9.35806 38.701 7.78974 38.701 5.88756C38.701 4.29056 37.4998 2.87598 35.3739 2.87598ZM34.8863 3.39225C36.5751 3.39225 37.0661 4.6749 37.0661 6.08834C37.0661 7.77712 36.1448 8.80622 34.7715 8.75574C34.2335 8.74542 33.7837 8.6043 33.5095 8.41156V3.53566C33.7034 3.46453 34.4182 3.39225 34.8863 3.39225ZM95.1756 5.22788C92.8764 5.22788 91.1028 7.0704 91.1028 9.81697C91.1028 12.614 92.9097 14.3774 95.1469 14.3774C97.4965 14.3774 99.191 12.4511 99.191 9.81697C99.191 6.86733 97.2407 5.22788 95.1756 5.22788ZM79.3719 5.34261C76.8903 5.32196 74.8711 6.80768 74.9835 9.96038C75.0443 12.5142 76.5656 14.1777 79.0564 14.32C80.9081 14.4313 81.85 13.907 82.6129 13.4596V10.9356C82.6129 10.2942 82.7414 10.0464 83.3013 10.0464H83.4734V9.70224H80.0029V10.0464H80.5191C80.9677 10.0464 81.3222 10.355 81.3222 10.9356V13.2301C81.0469 13.4848 80.4216 13.8037 79.5153 13.8037C77.9492 13.8037 76.561 12.3926 76.561 9.78829C76.561 7.32739 77.5993 5.80152 79.4292 5.80152C80.8025 5.80152 81.6882 6.77785 82.1253 7.7232L82.3835 7.66583L82.1253 5.42866H81.8098C81.7697 5.76366 81.6515 5.84856 81.2649 5.71547C80.9597 5.60419 80.2472 5.34261 79.3719 5.34261ZM39.4467 5.54338V5.88756H39.7909C40.2785 5.88756 40.4792 6.25354 40.4792 6.83406V12.972C40.4792 13.4905 40.3542 13.7177 39.7335 13.7177H39.4467V14.0619H43.0606V13.7177H42.7738C42.2862 13.7177 41.9994 13.5789 41.9994 12.8572V6.74802C41.9994 6.12734 42.1359 5.88756 42.7164 5.88756H43.0606V5.54338H39.4467ZM44.4373 5.54338V5.88756H44.7815C45.2806 5.88756 45.4699 6.16865 45.4699 6.74802V12.8572C45.4699 13.4056 45.3632 13.7177 44.7528 13.7177H44.4373V14.0619H50.5179L51.1776 11.7386L50.8908 11.6813C50.3515 13.0534 49.732 13.4882 48.6536 13.4882H47.3629C47.0072 13.4882 47.0187 13.2335 47.0187 12.8572V6.74802C47.0187 6.12734 47.1472 5.88756 47.7071 5.88756H48.0513V5.54338H44.4373ZM51.4644 5.54338V5.88756H51.8086C52.4189 5.88756 52.4683 6.05621 52.4683 6.74802V12.8572C52.4683 13.549 52.3329 13.7177 51.7225 13.7177H51.4644V14.0619H55.0496V13.7177H54.7915C54.3337 13.7177 53.931 13.6098 53.931 12.8572V9.70224C53.931 9.70224 56.6007 12.6863 56.8853 13.0006C57.2421 13.3976 57.0952 13.7177 56.6271 13.7177H56.3403V14.0619H60.069V13.689H59.8395C59.4024 13.689 58.8942 13.2232 58.5488 12.8572L55.1357 9.15729C56.2451 8.06967 57.3637 7.02566 57.8318 6.54725C58.2379 6.14111 58.55 5.88756 59.0077 5.88756H59.3806V5.54338H56.455V5.88756H56.7705C57.1675 5.88756 57.21 6.13079 57.0574 6.37515C56.7728 6.81226 55.4064 8.23488 53.931 9.44411V6.74802C53.931 6.23978 54.0033 5.88756 54.7055 5.88756H55.0496V5.54338H51.4644ZM60.5852 5.54338V5.88756H60.9294C61.4377 5.88756 61.6178 6.25354 61.6178 6.83406V12.972C61.6178 13.4905 61.5111 13.7177 60.9007 13.7177H60.5852V14.0619H64.1992V13.7177H63.9123C63.4534 13.7177 63.1666 13.5789 63.1666 12.8572V6.74802C63.1666 6.12734 63.2951 5.88756 63.855 5.88756H64.1992V5.54338H60.5852ZM65.3751 5.54338V5.88756C65.6401 5.89789 66.0979 5.94149 66.6371 6.7767V12.8859C66.6371 13.5467 66.4375 13.7177 65.7767 13.7177H65.4898V14.0619H68.5875V13.7177H68.2433C67.5825 13.7177 67.3828 13.5077 67.3828 12.8572V7.55111L73.1479 14.4347V6.80538C73.1479 5.96099 73.3659 5.85888 73.8649 5.85888H74.1804V5.54338H71.3123V5.85888H71.5704C72.323 5.85888 72.4595 6.09407 72.4595 6.7767V11.3371L67.5262 5.54338H65.3751ZM83.5881 5.54338L83.5021 7.63715H83.7889C83.8898 6.85357 84.0206 6.11702 85.2516 6.11702H86.3416V12.8859C86.3416 13.4251 86.1982 13.7177 85.5672 13.7177H85.2516V14.0619H88.8656V13.7177H88.5787C88.1107 13.7177 87.833 13.5995 87.833 12.8572V6.11702H88.9803C89.7329 6.11702 90.3192 6.3958 90.4718 7.63715H90.7299L90.6725 5.54338H83.5881ZM99.7647 5.54338V5.88756C100.039 5.89789 100.481 5.94149 100.998 6.7767V12.8859C100.998 13.5467 100.826 13.7177 100.166 13.7177H99.8507V14.0619H102.977V13.7177H102.633C101.962 13.7177 101.772 13.5077 101.772 12.8572V7.55111L107.537 14.4347V6.80538C107.537 5.96099 107.766 5.85888 108.255 5.85888H108.57V5.54338H105.702V5.85888H105.96C106.713 5.85888 106.849 6.09407 106.849 6.7767V11.3371L101.916 5.54338H99.7647ZM95.1756 5.77284C96.6097 5.77284 97.5562 7.13121 97.5562 9.81697C97.5562 12.3295 96.5202 13.8611 95.1469 13.8611C93.6922 13.8611 92.7663 12.4511 92.7663 9.81697C92.7663 7.27462 93.6703 5.77284 95.1756 5.77284ZM35.8901 18.5362C35.211 18.5362 34.4847 18.9148 34.4847 19.6835C34.4847 20.3879 35.0457 20.5979 35.6033 20.7447C36.1563 20.8916 36.7219 20.9707 36.7219 21.3757C36.7219 21.7601 36.2653 21.8346 35.9762 21.8346C35.5345 21.8346 35.1444 21.6465 35.1444 21.1463H34.3413C34.331 22.0721 35.1169 22.4943 35.9475 22.4943C36.9686 22.4943 37.525 21.9803 37.525 21.2897C37.525 20.4384 36.6806 20.2388 36.4064 20.1711C35.4645 19.9279 35.2878 19.9164 35.2878 19.6261C35.2878 19.3106 35.5987 19.1959 35.8615 19.1959C36.2573 19.1959 36.5521 19.3175 36.5785 19.7695H37.3816C37.3816 18.9011 36.6737 18.5362 35.8901 18.5362ZM39.7048 18.5362C38.5415 18.5362 37.8692 19.4288 37.8692 20.544C37.8692 21.6281 38.5415 22.4943 39.7048 22.4943C40.0685 22.4943 40.4483 22.3509 40.7374 21.978L40.8234 22.3796H41.3397V20.3719H39.7622V20.9742H40.594C40.5458 21.495 40.2418 21.7773 39.7048 21.7773C38.9625 21.7773 38.701 21.1692 38.701 20.544C38.701 19.8866 38.9625 19.2533 39.7048 19.2533C40.0938 19.2533 40.4127 19.4678 40.5079 19.8843H41.2823C41.1928 19.0307 40.4735 18.5362 39.7048 18.5362ZM45.2691 18.5362C44.1058 18.5362 43.4048 19.4288 43.4048 20.544C43.4048 21.6281 44.1058 22.4943 45.2691 22.4943C45.6317 22.4943 46.0125 22.3509 46.3017 21.978L46.3877 22.3796H46.904V20.3719H45.3265V20.9742H46.1583C46.1101 21.495 45.806 21.7773 45.2691 21.7773C44.5268 21.7773 44.2366 21.1692 44.2366 20.544C44.2366 19.8866 44.5268 19.2533 45.2691 19.2533C45.658 19.2533 45.9483 19.4678 46.0435 19.8843H46.8466C46.756 19.0307 46.0378 18.5362 45.2691 18.5362ZM72.8611 18.5362C71.6989 18.5362 71.0254 19.4288 71.0254 20.544C71.0254 21.6281 71.6989 22.4943 72.8611 22.4943C73.2248 22.4943 73.6045 22.3509 73.8936 21.978L73.9797 22.3796H74.5246V20.3719H72.9471V20.9742H73.7789C73.7319 21.495 73.398 21.7773 72.8611 21.7773C72.1188 21.7773 71.8572 21.1692 71.8572 20.544C71.8572 19.8866 72.1188 19.2533 72.8611 19.2533C73.2512 19.2533 73.5689 19.4678 73.6642 19.8843H74.4673C74.3778 19.0307 73.6298 18.5362 72.8611 18.5362ZM30.6987 18.6223V22.3796H31.4731V19.8843L33.0506 22.3796H33.8824V18.6223H33.108V21.1463H33.0793L31.5305 18.6223H30.6987ZM60.3558 18.6223V22.3796H61.1876V20.8308H62.7364V20.1998H61.1876V19.3393H62.9945V18.6223H60.3558ZM63.31 18.6223V22.3796H64.0557V18.6223H63.31ZM75.0696 18.6223V22.3796H75.8153V18.6223H75.0696ZM86.6284 18.6223V22.3796H88.464C89.1432 22.3796 89.7834 22.0526 89.7834 21.2897C89.7834 20.8216 89.5528 20.4751 89.095 20.3432C89.4208 20.186 89.6113 19.937 89.6113 19.5688C89.6113 18.8689 89.1226 18.6223 88.4067 18.6223H86.6284ZM96.0074 18.651V19.2533H96.7531V18.651H96.0074ZM67.8991 18.8517V19.6835H67.4402V20.1711H67.8991V21.7773C67.8991 22.3188 68.303 22.437 68.7596 22.437C68.9076 22.437 69.0636 22.4289 69.1898 22.4083V21.806C69.1118 21.8209 69.0395 21.8346 68.9603 21.8346C68.7079 21.8346 68.6448 21.7715 68.6448 21.5191V20.1711H69.1898V19.6835H68.6448V18.8517H67.8991ZM87.4602 19.282H88.2346C88.5294 19.282 88.8082 19.3542 88.8082 19.7122C88.8082 20.0277 88.5822 20.1711 88.2919 20.1711H87.4602V19.282ZM49.0264 19.5975C48.6639 19.5975 48.3037 19.8292 48.166 20.1711H48.1373V19.6835H47.4489V22.3796H48.1947V21.175C48.1947 20.6954 48.3656 20.2858 48.9117 20.2858C49.0012 20.2858 49.1308 20.2984 49.1985 20.3145V19.6261C49.1515 19.6101 49.0792 19.5975 49.0264 19.5975ZM50.7474 19.5975C49.8949 19.5975 49.3419 20.1631 49.3419 21.0315C49.3419 21.8943 49.8949 22.4656 50.7474 22.4656C51.6055 22.4656 52.1528 21.8943 52.1528 21.0315C52.1528 20.1631 51.6055 19.5975 50.7474 19.5975ZM57.1434 19.5975C56.8073 19.5975 56.4906 19.7386 56.3116 20.0277V19.6835H55.5946V23.3548H56.3403V22.0641H56.369C56.548 22.3326 56.8463 22.4656 57.1721 22.4656C57.9672 22.4656 58.3767 21.7864 58.3767 21.0602C58.3767 20.287 57.9958 19.5975 57.1434 19.5975ZM65.834 19.5975C65.2237 19.5975 64.5846 19.8143 64.5433 20.5153H65.2891C65.3155 20.2204 65.4933 20.1137 65.7767 20.1137C66.0394 20.1137 66.2642 20.1367 66.2642 20.4579C66.2642 20.7631 65.8329 20.7619 65.3751 20.8308C64.9128 20.8939 64.4573 21.0465 64.4573 21.6625C64.4573 22.2201 64.86 22.4656 65.3751 22.4656C65.7067 22.4656 66.0566 22.3693 66.2929 22.1215C66.2987 22.2109 66.3239 22.2958 66.3503 22.3796H67.1247C67.0559 22.2695 67.01 22.0239 67.01 21.7773V20.3719C67.01 19.7202 66.3767 19.5975 65.834 19.5975ZM77.6223 19.5975C77.0119 19.5975 76.374 19.8143 76.3316 20.5153H77.0773C77.1026 20.2204 77.3102 20.1137 77.5936 20.1137C77.8575 20.1137 78.0525 20.1367 78.0525 20.4579C78.0525 20.7631 77.6498 20.7619 77.192 20.8308C76.7285 20.8939 76.2455 21.0465 76.2455 21.6625C76.2455 22.2201 76.6758 22.4656 77.192 22.4656C77.5225 22.4656 77.8735 22.3693 78.1099 22.1215C78.1156 22.2109 78.1133 22.2958 78.1385 22.3796H78.913C78.8441 22.2695 78.8269 22.0239 78.8269 21.7773V20.3719C78.8269 19.7202 78.1649 19.5975 77.6223 19.5975ZM80.5478 19.5975C79.9627 19.5975 79.3719 19.7925 79.3719 20.4866C79.3719 20.9662 79.8009 21.1084 80.2323 21.2036C80.7692 21.3184 81.0928 21.4079 81.0928 21.6339C81.0928 21.8966 80.8209 21.978 80.6052 21.978C80.3103 21.978 80.0361 21.845 80.0315 21.5191H79.3145C79.3455 22.2396 79.9455 22.4656 80.5765 22.4656C81.1972 22.4656 81.8385 22.235 81.8385 21.5191C81.8385 21.0143 81.414 20.8445 80.9781 20.7447C80.5513 20.6449 80.1176 20.6116 80.1176 20.3432C80.1176 20.1218 80.3505 20.1137 80.5191 20.1137C80.7876 20.1137 81.0136 20.1677 81.0354 20.4579H81.7525C81.694 19.7891 81.1421 19.5975 80.5478 19.5975ZM83.3873 19.5975C82.8034 19.5975 82.2114 19.7925 82.2114 20.4866C82.2114 20.9662 82.6404 21.1084 83.0718 21.2036C83.6088 21.3184 83.9323 21.4079 83.9323 21.6339C83.9323 21.8966 83.6604 21.978 83.4447 21.978C83.1498 21.978 82.8768 21.845 82.8711 21.5191H82.154C82.185 22.2396 82.8125 22.4656 83.4447 22.4656C84.0654 22.4656 84.678 22.235 84.678 21.5191C84.678 21.0143 84.2535 20.8445 83.8176 20.7447C83.3908 20.6449 82.9571 20.6116 82.9571 20.3432C82.9571 20.1218 83.2198 20.1137 83.3873 20.1137C83.6558 20.1137 83.8829 20.1677 83.9036 20.4579H84.592C84.5335 19.7891 83.9816 19.5975 83.3873 19.5975ZM94.4012 19.5975C93.8172 19.5975 93.1965 19.7925 93.1965 20.4866C93.1965 20.9662 93.6256 21.1084 94.057 21.2036C94.5939 21.3184 94.9174 21.4079 94.9174 21.6339C94.9174 21.8966 94.6455 21.978 94.4299 21.978C94.135 21.978 93.8619 21.845 93.8562 21.5191H93.1392C93.1701 22.2396 93.7989 22.4656 94.4299 22.4656C95.0517 22.4656 95.6632 22.235 95.6632 21.5191C95.6632 21.0143 95.2398 20.8445 94.8027 20.7447C94.3771 20.6449 93.9423 20.6116 93.9423 20.3432C93.9423 20.1218 94.205 20.1137 94.3725 20.1137C94.6421 20.1137 94.8681 20.1677 94.8888 20.4579H95.5771C95.5198 19.7891 94.9955 19.5975 94.4012 19.5975ZM98.8182 19.5975C98.5027 19.5975 98.1746 19.7512 97.9864 20.0564H97.9577V19.6835H97.2694V22.3796H98.0151V20.9742C98.0151 20.4212 98.1837 20.1998 98.5887 20.1998C98.9363 20.1998 99.0763 20.412 99.0763 20.8595V22.3796H99.822V20.716C99.822 20.0415 99.6132 19.5975 98.8182 19.5975ZM101.6 19.5975C100.774 19.5975 100.224 20.2158 100.224 21.0315C100.224 21.8736 100.742 22.4656 101.6 22.4656C102.216 22.4656 102.68 22.1903 102.891 21.5478H102.231C102.184 21.7165 101.928 21.892 101.629 21.892C101.214 21.892 100.991 21.6775 100.969 21.2036H102.92C102.972 20.3673 102.526 19.5975 101.6 19.5975ZM104.526 19.5975C103.942 19.5975 103.35 19.7925 103.35 20.4866C103.35 20.9662 103.779 21.1084 104.21 21.2036C104.747 21.3184 105.071 21.4079 105.071 21.6339C105.071 21.8966 104.799 21.978 104.583 21.978C104.288 21.978 104.014 21.845 104.01 21.5191H103.293C103.325 22.2396 103.924 22.4656 104.555 22.4656C105.175 22.4656 105.817 22.235 105.817 21.5191C105.817 21.0143 105.392 20.8445 104.956 20.7447C104.529 20.6449 104.096 20.6116 104.096 20.3432C104.096 20.1218 104.357 20.1137 104.526 20.1137C104.794 20.1137 104.993 20.1677 105.013 20.4579H105.731C105.672 19.7891 105.121 19.5975 104.526 19.5975ZM107.308 19.5975C106.724 19.5975 106.103 19.7925 106.103 20.4866C106.103 20.9662 106.561 21.1084 106.993 21.2036C107.529 21.3184 107.824 21.4079 107.824 21.6339C107.824 21.8966 107.552 21.978 107.337 21.978C107.042 21.978 106.769 21.845 106.763 21.5191H106.046C106.077 22.2396 106.706 22.4656 107.337 22.4656C107.957 22.4656 108.57 22.235 108.57 21.5191C108.57 21.0143 108.146 20.8445 107.71 20.7447C107.283 20.6449 106.878 20.6116 106.878 20.3432C106.878 20.1218 107.111 20.1137 107.279 20.1137C107.548 20.1137 107.774 20.1677 107.796 20.4579H108.513C108.454 19.7891 107.903 19.5975 107.308 19.5975ZM52.583 19.6835V21.347C52.583 22.0205 52.7918 22.4656 53.5869 22.4656C53.9024 22.4656 54.2293 22.3119 54.4186 22.0067V22.3796H55.1357V19.6835H54.39V21.0889C54.39 21.6407 54.2225 21.892 53.8163 21.892C53.4698 21.892 53.3287 21.6511 53.3287 21.2036V19.6835H52.583ZM90.1562 19.6835V21.347C90.1562 22.0205 90.3651 22.4656 91.1601 22.4656C91.4768 22.4656 91.8026 22.3119 91.9919 22.0067V22.3796H92.7089V19.6835H91.9632V21.0889C91.9632 21.6407 91.7946 21.892 91.3896 21.892C91.0419 21.892 90.902 21.6511 90.902 21.2036V19.6835H90.1562ZM96.0074 19.6835V22.3796H96.7531V19.6835H96.0074ZM50.7474 20.1711C51.2579 20.1711 51.407 20.5956 51.407 21.0315C51.407 21.4629 51.2579 21.892 50.7474 21.892C50.2426 21.892 50.0877 21.4629 50.0877 21.0315C50.0877 20.5956 50.2426 20.1711 50.7474 20.1711ZM56.9713 20.1711C57.4509 20.1711 57.631 20.6002 57.631 21.0315C57.631 21.4732 57.4601 21.892 56.9713 21.892C56.4872 21.892 56.3116 21.4732 56.3116 21.0315C56.3116 20.5898 56.4826 20.1711 56.9713 20.1711ZM101.6 20.1711C101.963 20.1711 102.105 20.3661 102.174 20.7447H100.969C100.981 20.5348 101.126 20.1711 101.6 20.1711ZM87.4602 20.716H88.378C88.7313 20.716 88.9516 20.8767 88.9516 21.261C88.9516 21.6511 88.6751 21.7486 88.3493 21.7486H87.4602V20.716ZM66.2642 21.0602V21.347C66.2642 21.51 66.2459 21.978 65.6619 21.978C65.421 21.978 65.203 21.9126 65.203 21.6339C65.203 21.3608 65.4302 21.2794 65.6619 21.2323C65.8937 21.1899 66.1381 21.1715 66.2642 21.0602ZM78.0525 21.0602V21.347C78.0525 21.51 78.0341 21.978 77.4502 21.978C77.2093 21.978 76.9913 21.9126 76.9913 21.6339C76.9913 21.3608 77.2184 21.2794 77.4502 21.2323C77.6808 21.1899 77.9263 21.1715 78.0525 21.0602Z" fill="#231F20"/>
</svg>
