<svg width="28" height="18" viewBox="0 0 28 18" fill="none" xmlns="http://www.w3.org/2000/svg">
<path d="M9.13021 13.7873C11.4512 13.7873 13.3328 11.9057 13.3328 9.58467C13.3328 7.26365 11.4512 5.38208 9.13021 5.38208C6.80918 5.38208 4.92761 7.26365 4.92761 9.58467C4.92761 11.9057 6.80918 13.7873 9.13021 13.7873Z" stroke="white" stroke-width="1.3" stroke-linecap="round" stroke-linejoin="round"/>
<path d="M17.811 4.30044L14.6039 1.0934C14.1936 0.683019 13.5273 0.683019 13.1144 1.0934L11.7794 2.4284C13.9529 3.23396 15.6603 5.00214 16.3823 7.21616L17.811 5.78743C18.2214 5.37705 18.2214 4.71082 17.811 4.29791V4.30044Z" stroke="white" stroke-width="1.3" stroke-linecap="round" stroke-linejoin="round"/>
<path d="M9.12979 17.2145C4.75494 17.2145 1.24138 13.5337 1.51496 9.09808C1.75055 5.29827 4.8436 2.20522 8.64088 1.96963C13.074 1.69351 16.7573 5.2096 16.7573 9.58445V15.9149C16.7573 16.6318 16.1772 17.2145 15.4577 17.2145H9.12725H9.12979Z" stroke="white" stroke-width="1.3" stroke-linecap="round" stroke-linejoin="round"/>
<path d="M16.7572 15.6619H26.4999V13.3365" stroke="white" stroke-width="1.3" stroke-linecap="round" stroke-linejoin="round"/>
</svg>
