<svg width="50" height="50" viewBox="0 0 50 50" fill="none" xmlns="http://www.w3.org/2000/svg">
<path d="M43.7969 39.6172L41.4063 38.5547V36.5156C42.1288 36.0117 42.7191 35.341 43.1271 34.5603C43.5351 33.7797 43.7488 32.9121 43.75 32.0312V27.3437C43.7488 26.4629 43.5351 25.5953 43.1271 24.8147C42.7191 24.034 42.1288 23.3633 41.4063 22.8594V20.3203L44.6328 23.0391C45.1094 23.439 45.7253 23.6332 46.345 23.5789C46.9648 23.5247 47.5376 23.2266 47.9375 22.75C48.3374 22.2734 48.5316 21.6575 48.4774 21.0378C48.4232 20.418 48.125 19.8452 47.6485 19.4453H47.6406L26.5078 1.80468C26.0874 1.4491 25.5546 1.254 25.0039 1.254C24.4533 1.254 23.9205 1.4491 23.5 1.80468L2.42189 19.4922C1.98246 19.8491 1.68341 20.3499 1.57761 20.9061C1.47181 21.4622 1.56609 22.0379 1.84377 22.5312C2.0162 22.8252 2.25114 23.0776 2.53196 23.2707C2.81277 23.4637 3.13258 23.5927 3.46877 23.6484C3.59761 23.6727 3.7283 23.6857 3.85939 23.6875C4.41182 23.687 4.94613 23.4904 5.3672 23.1328L8.59377 20.3984V46.0937C8.59562 46.7148 8.84315 47.3098 9.28228 47.749C9.72142 48.1881 10.3165 48.4356 10.9375 48.4375H47.6563C47.8635 48.4375 48.0622 48.3552 48.2087 48.2087C48.3552 48.0622 48.4375 47.8634 48.4375 47.6562V46.7578C48.4377 45.2462 47.9994 43.767 47.1757 42.4996C46.352 41.2322 45.1783 40.2309 43.7969 39.6172ZM43.1641 41.0391C44.4067 41.6012 45.4324 42.5529 46.086 43.75H30.4766C31.1292 42.555 32.1517 41.6038 33.3906 41.0391L35.3672 40.1719C35.5904 40.7643 35.9889 41.2746 36.5095 41.6348C37.0302 41.995 37.6482 42.1879 38.2813 42.1879C38.9143 42.1879 39.5324 41.995 40.053 41.6348C40.5736 41.2746 40.9721 40.7643 41.1953 40.1719L43.1641 41.0391ZM36.7188 39.0625V37.2734C37.7385 37.5755 38.824 37.5755 39.8438 37.2734V39.0625C39.8438 39.4769 39.6791 39.8743 39.3861 40.1674C39.0931 40.4604 38.6957 40.625 38.2813 40.625C37.8669 40.625 37.4694 40.4604 37.1764 40.1674C36.8834 39.8743 36.7188 39.4769 36.7188 39.0625ZM38.2813 35.9375C37.3119 35.9344 36.3786 35.57 35.6635 34.9156C34.9484 34.2612 34.5029 33.3637 34.4141 32.3984C34.8771 32.667 35.4023 32.8098 35.9375 32.8125H40.625C41.1603 32.8098 41.6855 32.667 42.1485 32.3984C42.0596 33.3637 41.6142 34.2612 40.8991 34.9156C40.184 35.57 39.2506 35.9344 38.2813 35.9375ZM40.625 31.25H35.9375C35.5231 31.25 35.1257 31.0854 34.8327 30.7924C34.5396 30.4993 34.375 30.1019 34.375 29.6875C34.375 29.2731 34.5396 28.8757 34.8327 28.5826C35.1257 28.2896 35.5231 28.125 35.9375 28.125H40.625C41.0394 28.125 41.4368 28.2896 41.7299 28.5826C42.0229 28.8757 42.1875 29.2731 42.1875 29.6875C42.1875 30.1019 42.0229 30.4993 41.7299 30.7924C41.4368 31.0854 41.0394 31.25 40.625 31.25ZM42.1485 26.9766C41.6855 26.708 41.1603 26.5652 40.625 26.5625H35.9375C35.4023 26.5652 34.8771 26.708 34.4141 26.9766C34.4989 26.0094 34.943 25.1091 35.6589 24.4533C36.3748 23.7975 37.3104 23.4337 38.2813 23.4337C39.2521 23.4337 40.1878 23.7975 40.9036 24.4533C41.6195 25.1091 42.0636 26.0094 42.1485 26.9766ZM4.35939 21.9375C4.27305 22.0109 4.17157 22.0644 4.06219 22.0941C3.9528 22.1238 3.83821 22.129 3.72658 22.1094C3.61281 22.0899 3.50476 22.0455 3.4102 21.9793C3.31564 21.9131 3.23692 21.8268 3.1797 21.7266C3.09464 21.5519 3.07228 21.3533 3.11638 21.164C3.16048 20.9748 3.26836 20.8066 3.42189 20.6875L24.5 3C24.6414 2.88494 24.8178 2.82156 25 2.82031C25.1826 2.81995 25.3595 2.88353 25.5 3L46.6406 20.6484C46.7826 20.7857 46.8673 20.9716 46.8777 21.1688C46.8881 21.366 46.8235 21.5599 46.6967 21.7113C46.57 21.8628 46.3907 21.9606 46.1947 21.9852C45.9988 22.0098 45.8008 21.9592 45.6406 21.8437L25.5 4.875C25.36 4.75409 25.1811 4.68757 24.9961 4.68757C24.8111 4.68757 24.6322 4.75409 24.4922 4.875L4.35939 21.9375ZM28.125 46.875H10.9375C10.7303 46.875 10.5316 46.7927 10.3851 46.6462C10.2386 46.4997 10.1563 46.3009 10.1563 46.0937V19.0781L25 6.49218L39.8438 19V22.1016H39.8203C39.832 22.0265 39.8398 21.9509 39.8438 21.875C39.8438 21.4606 39.6791 21.0632 39.3861 20.7701C39.0931 20.4771 38.6957 20.3125 38.2813 20.3125C37.8669 20.3125 37.4694 20.4771 37.1764 20.7701C36.8834 21.0632 36.7188 21.4606 36.7188 21.875C36.7227 21.9509 36.7305 22.0265 36.7422 22.1016C35.609 22.4339 34.6138 23.1241 33.9055 24.0691C33.1971 25.014 32.8137 26.1628 32.8125 27.3437V32.0312C32.8137 32.9121 33.0274 33.7797 33.4354 34.5603C33.8435 35.341 34.4338 36.0117 35.1563 36.5156V38.5547L32.7578 39.6172C31.3785 40.2329 30.207 41.2348 29.3848 42.502C28.5627 43.7692 28.1251 45.2473 28.125 46.7578V46.875ZM46.875 46.7578V46.875H29.6875V46.7578C29.6907 46.2702 29.7536 45.7848 29.875 45.3125H46.6875C46.8089 45.7848 46.8719 46.2702 46.875 46.7578Z" fill="#76BC21"/>
<path d="M35.9376 28.9063H37.5001V30.4688H35.9376V28.9063ZM39.0626 28.9063H40.6251V30.4688H39.0626V28.9063ZM25.7813 29.6875V27.3438C25.7813 25.8933 25.2051 24.5023 24.1796 23.4768C23.154 22.4512 21.763 21.875 20.3126 21.875C18.8622 21.875 17.4712 22.4512 16.4456 23.4768C15.42 24.5023 14.8438 25.8933 14.8438 27.3438V29.6875C14.4298 29.6887 14.0331 29.8538 13.7403 30.1465C13.4476 30.4393 13.2825 30.836 13.2813 31.25V39.0625C13.2825 39.4765 13.4476 39.8732 13.7403 40.166C14.0331 40.4587 14.4298 40.6238 14.8438 40.625H25.7813C26.1953 40.6238 26.592 40.4587 26.8848 40.166C27.1776 39.8732 27.3426 39.4765 27.3438 39.0625V31.25C27.3426 30.836 27.1776 30.4393 26.8848 30.1465C26.592 29.8538 26.1953 29.6887 25.7813 29.6875ZM16.4063 27.3438C16.4063 26.3077 16.8179 25.3142 17.5504 24.5816C18.283 23.8491 19.2766 23.4375 20.3126 23.4375C21.3486 23.4375 22.3421 23.8491 23.0747 24.5816C23.8073 25.3142 24.2188 26.3077 24.2188 27.3438V29.6875H22.6563V27.3438C22.6563 26.7221 22.4094 26.126 21.9698 25.6865C21.5303 25.2469 20.9342 25 20.3126 25C19.691 25 19.0948 25.2469 18.6553 25.6865C18.2157 26.126 17.9688 26.7221 17.9688 27.3438V29.6875H16.4063V27.3438ZM21.0938 27.3438V29.6875H19.5313V27.3438C19.5313 27.1366 19.6136 26.9378 19.7601 26.7913C19.9066 26.6448 20.1054 26.5625 20.3126 26.5625C20.5198 26.5625 20.7185 26.6448 20.865 26.7913C21.0115 26.9378 21.0938 27.1366 21.0938 27.3438ZM25.7813 39.0625H14.8438V31.25H25.7813V39.0625Z" fill="#76BC21"/>
<path d="M20.3126 32.8125C19.9692 32.8116 19.6351 32.9243 19.3623 33.1329C19.0895 33.3415 18.8933 33.6345 18.8042 33.9661C18.7151 34.2978 18.7381 34.6496 18.8696 34.9668C19.0011 35.2841 19.2337 35.549 19.5313 35.7203V37.5H21.0938V35.7203C21.3914 35.549 21.6241 35.2841 21.7556 34.9668C21.8871 34.6496 21.91 34.2978 21.8209 33.9661C21.7318 33.6345 21.5356 33.3415 21.2628 33.1329C20.9901 32.9243 20.656 32.8116 20.3126 32.8125Z" fill="#76BC21"/>
</svg>
