<svg width="50" height="51" viewBox="0 0 50 51" fill="none" xmlns="http://www.w3.org/2000/svg">
<g clip-path="url(#clip0_2115_9192)">
<path d="M44.7432 14.1103C44.7197 13.5785 44.7042 13.0464 44.6969 12.5141C44.6674 10.5146 43.0943 8.88286 41.0977 8.77134C34.9914 8.43022 30.2158 6.39908 26.1821 2.46735C25.5071 1.8486 24.4947 1.8486 23.8197 2.46735C19.7859 6.39908 15.0103 8.43022 8.90398 8.77134C6.90741 8.88286 5.33437 10.5146 5.30468 12.514C5.29748 13.0463 5.28208 13.5785 5.25848 14.1103C5.03407 25.8937 4.69765 42.0433 24.2971 48.8776C24.3909 48.9102 24.4869 48.9364 24.5844 48.9558L24.5854 48.956C24.8597 49.0108 25.1421 49.0108 25.4163 48.956C25.5142 48.9364 25.6113 48.9101 25.7055 48.8772C45.2481 42.0429 44.9676 25.9496 44.7432 14.1103Z" stroke="#76BC21" stroke-width="3" stroke-miterlimit="10"/>
<path d="M35.9773 25.5001C35.9773 31.5628 31.0626 36.4775 25 36.4775C18.9374 36.4775 14.0227 31.5628 14.0227 25.5001C14.0227 19.4375 18.9374 14.5227 25 14.5227C31.0626 14.5227 35.9773 19.4375 35.9773 25.5001Z" stroke="#76BC21" stroke-width="3" stroke-miterlimit="10"/>
<path d="M29.612 22.6729L22.7971 29.4878" stroke="#76BC21" stroke-width="3" stroke-miterlimit="10" stroke-linecap="round"/>
<path d="M20.1926 26.8835L22.7969 29.4878" stroke="#76BC21" stroke-width="3" stroke-miterlimit="10" stroke-linecap="round"/>
</g>
<defs>
<clipPath id="clip0_2115_9192">
<rect width="50" height="50" fill="white" transform="translate(0 0.5)"/>
</clipPath>
</defs>
</svg>
