<svg width="109" height="12" viewBox="0 0 109 12" fill="none" xmlns="http://www.w3.org/2000/svg">
<path d="M67.0757 0.540699C67.1767 0.537844 67.2755 0.570709 67.3548 0.633523C67.434 0.696337 67.4886 0.785086 67.509 0.884189L67.9775 3.03321H60.923C60.8637 3.03262 60.8048 3.04389 60.7498 3.06637C60.6948 3.08884 60.6449 3.12207 60.6029 3.1641C60.5609 3.20613 60.5277 3.25613 60.5052 3.31116C60.4828 3.36619 60.4715 3.42515 60.4721 3.48459V4.98295H67.3099V7.1683H60.4721V8.66777C60.4717 8.72717 60.483 8.78606 60.5055 8.84103C60.528 8.89599 60.5612 8.94592 60.6032 8.98792C60.6452 9.02993 60.695 9.06316 60.7499 9.08569C60.8049 9.10822 60.8637 9.11959 60.923 9.11915H67.9775L67.509 11.2682C67.4884 11.3672 67.4338 11.4558 67.3546 11.5186C67.2754 11.5814 67.1767 11.6143 67.0757 11.6117H56.4664C56.227 11.6122 55.9898 11.5654 55.7685 11.474C55.5471 11.3825 55.3461 11.2481 55.1768 11.0786C55.0076 10.9091 54.8734 10.7077 54.7822 10.4861C54.6909 10.2645 54.6443 10.0271 54.645 9.78742V2.36494C54.6443 2.12527 54.6909 1.88781 54.7822 1.66623C54.8734 1.44465 55.0076 1.2433 55.1768 1.07378C55.3461 0.904251 55.5471 0.769883 55.7685 0.678398C55.9898 0.586914 56.227 0.540117 56.4664 0.540699H67.0757Z" fill="#0669B1"/>
<path d="M35.8087 0.540699C35.9097 0.537844 36.0086 0.570709 36.0878 0.633523C36.167 0.696337 36.2217 0.785086 36.242 0.884189L36.7106 3.03321H29.6561C29.5967 3.03262 29.5378 3.04389 29.4828 3.06637C29.4278 3.08884 29.3779 3.12207 29.3359 3.1641C29.2939 3.20613 29.2607 3.25613 29.2383 3.31116C29.2158 3.36619 29.2045 3.42515 29.2051 3.48459V4.98295H36.043V7.1683H29.2051V8.66777C29.2045 8.72721 29.2158 8.78617 29.2383 8.8412C29.2607 8.89623 29.2939 8.94623 29.3359 8.98826C29.3779 9.03029 29.4278 9.06352 29.4828 9.08599C29.5378 9.10847 29.5967 9.11974 29.6561 9.11915H36.7106L36.242 11.2682C36.2215 11.3672 36.1668 11.4558 36.0876 11.5186C36.0084 11.5814 35.9097 11.6143 35.8087 11.6117H25.1994C24.9599 11.6122 24.7227 11.5655 24.5013 11.474C24.2799 11.3825 24.0788 11.2482 23.9095 11.0786C23.7401 10.9091 23.6059 10.7078 23.5145 10.4862C23.4231 10.2646 23.3764 10.0271 23.377 9.78742V2.36494C23.3764 2.12522 23.4231 1.88774 23.5145 1.66615C23.6059 1.44456 23.7401 1.24322 23.9095 1.07371C24.0788 0.9042 24.2799 0.769849 24.5013 0.678378C24.7227 0.586907 24.9599 0.540118 25.1994 0.540699H35.8087Z" fill="#0669B1"/>
<path d="M97.2966 2.96258L95.4928 7.20666H99.2093L97.2966 2.96258ZM96.0692 0.540527H101.842C101.932 0.54193 102.02 0.570101 102.094 0.621461C102.168 0.672821 102.225 0.745051 102.258 0.828971L107.291 11.6908H101.23L100.201 9.41513H94.5535L93.5791 11.6908H90.9834L95.6182 0.831173C95.6609 0.747233 95.7252 0.676233 95.8045 0.625519C95.8838 0.574806 95.9751 0.546223 96.0692 0.542729V0.540527Z" fill="#0669B1"/>
<path d="M21.4648 0.540527H15.6377V11.6654H21.4648V0.540527Z" fill="#0669B1"/>
<path d="M13.8147 0.867285L13.4903 3.16163C12.0184 2.9074 10.5273 2.78033 9.03364 2.7818C6.48966 2.7818 5.89464 3.0163 5.89464 3.8475C5.89464 4.40678 6.34558 4.67761 7.10449 4.75027L10.6042 5.05743C12.6434 5.23798 14.3031 6.17707 14.3031 8.30848C14.3031 10.3485 12.6797 11.3603 11.6876 11.5948C10.8396 11.794 9.43179 11.9559 7.26726 11.9559C4.97515 11.9559 2.61265 11.7357 0.844075 11.3603L1.16853 9.06702C2.74343 9.31967 4.33594 9.44631 5.93093 9.44574C8.31213 9.44574 9.26901 9.31913 9.26901 8.28976C9.26901 7.67654 8.72678 7.44094 8.00527 7.387L4.20415 7.04351C2.17821 6.86295 0.662598 5.70808 0.662598 3.86512C0.662598 1.23169 2.88432 0.271682 7.61372 0.271682C9.69562 0.257711 11.7735 0.457287 13.8147 0.867285Z" fill="#0669B1"/>
<path d="M52.9131 5.01871V11.1949C50.5344 11.6986 48.1096 11.9528 45.6782 11.9535C38.7315 11.9535 37.6855 9.29913 37.6855 6.10202C37.6855 3.55557 38.6754 0.26709 45.6782 0.26709C47.9692 0.26709 50.3329 0.487276 52.1014 0.862693L51.7715 3.15703C50.2876 2.9037 48.7849 2.77663 47.2796 2.77721C47.2796 2.77721 43.2915 2.45244 43.2915 6.15487C43.2915 9.49509 45.2405 9.67785 46.1611 9.67785C46.6261 9.66275 47.09 9.62085 47.5502 9.55234V6.84405H46.1655V5.01871H52.9131Z" fill="#0669B1"/>
<path d="M90.0966 0.540527H84.2695V11.6654H90.0966V0.540527Z" fill="#0669B1"/>
<path d="M82.3399 0.540527V10.9608C82.3356 11.1494 82.2576 11.3288 82.1227 11.4605C81.9879 11.5922 81.8068 11.6658 81.6184 11.6654H75.5021L71.8571 4.04369V11.6654H69.4033V1.28145C69.4039 1.08999 69.4801 0.906514 69.6152 0.771024C69.7504 0.635533 69.9336 0.559013 70.1248 0.558142H76.2599L79.8894 8.14356V0.558142C79.8861 0.540527 82.3399 0.540527 82.3399 0.540527Z" fill="#0669B1"/>
<path d="M108.031 1.74836C108.033 1.92251 108.001 2.09537 107.935 2.25672C107.87 2.41808 107.773 2.56466 107.649 2.68781C107.526 2.81097 107.38 2.90819 107.219 2.97374C107.058 3.0393 106.885 3.07185 106.711 3.06948C106.45 3.06948 106.195 2.992 105.978 2.84683C105.761 2.70167 105.591 2.49534 105.492 2.25393C105.392 2.01253 105.366 1.7469 105.416 1.49063C105.467 1.23435 105.593 0.998954 105.778 0.814193C105.962 0.629431 106.197 0.503607 106.453 0.452632C106.709 0.401656 106.975 0.427819 107.216 0.527811C107.457 0.627803 107.663 0.797134 107.808 1.01439C107.953 1.23165 108.031 1.48707 108.031 1.74836ZM105.866 1.04377C105.704 1.24266 105.614 1.49142 105.613 1.74836C105.611 2.0425 105.725 2.32565 105.931 2.5356C106.136 2.74554 106.417 2.8651 106.711 2.86801C107.003 2.87035 107.283 2.7566 107.491 2.55178C107.699 2.34697 107.817 2.06787 107.82 1.77589C107.822 1.4839 107.708 1.20295 107.504 0.994832C107.299 0.786715 107.02 0.668485 106.729 0.666149C106.565 0.657622 106.402 0.687316 106.253 0.75287C106.103 0.818424 105.971 0.918029 105.866 1.04377ZM107.261 2.54874H106.99L106.593 1.97075V2.54874H106.373V1.00744H106.625C106.747 0.993616 106.869 1.02582 106.968 1.09771C107.022 1.13672 107.065 1.18863 107.094 1.24865C107.122 1.30867 107.135 1.37488 107.131 1.4412C107.14 1.54161 107.109 1.64138 107.044 1.71902C106.98 1.79665 106.888 1.84594 106.788 1.85625L107.261 2.54874ZM106.665 1.668C106.828 1.668 106.918 1.59533 106.918 1.44781C106.918 1.30028 106.828 1.22762 106.647 1.22762H106.593V1.679L106.665 1.66139V1.668Z" fill="#0669B1"/>
</svg>
