<svg width="30" height="28" viewBox="0 0 30 28" fill="none" xmlns="http://www.w3.org/2000/svg">
<path d="M14.1692 0.927049C14.4685 0.00573874 15.772 0.00573993 16.0713 0.927051L18.7395 9.13882C18.8734 9.55084 19.2573 9.8298 19.6905 9.8298H28.3249C29.2936 9.8298 29.6964 11.0694 28.9127 11.6388L21.9273 16.714C21.5768 16.9686 21.4302 17.42 21.5641 17.832L24.2322 26.0438C24.5316 26.9651 23.4771 27.7312 22.6934 27.1618L15.708 22.0867C15.3575 21.832 14.883 21.832 14.5325 22.0867L7.54712 27.1618C6.7634 27.7312 5.70893 26.9651 6.00828 26.0438L8.67644 17.832C8.81032 17.42 8.66366 16.9686 8.31317 16.714L1.32782 11.6388C0.544108 11.0694 0.946885 9.8298 1.91561 9.8298H10.55C10.9832 9.8298 11.3672 9.55084 11.501 9.13882L14.1692 0.927049Z" fill="#FFC329"/>
</svg>
