<svg width="50" height="50" viewBox="0 0 50 50" fill="none" xmlns="http://www.w3.org/2000/svg">
<g clip-path="url(#clip0_2531_9000)">
<path d="M11.1317 28.9305C11.3082 28.9303 11.4813 28.8824 11.6327 28.7917C11.7841 28.701 11.908 28.5711 11.9915 28.4156C12.0749 28.2601 12.1146 28.0849 12.1064 27.9086C12.0983 27.7324 12.0425 27.5616 11.945 27.4145C11.1568 26.2209 10.6405 24.8686 10.4325 23.4534C10.2245 22.0382 10.3299 20.5946 10.7413 19.2246C11.1528 17.8546 11.8601 16.5918 12.8134 15.5253C13.7667 14.4588 14.9426 13.6148 16.258 13.0529C17.5734 12.491 18.9962 12.2249 20.4258 12.2734C21.8554 12.322 23.2569 12.684 24.5311 13.3339C25.8054 13.9838 26.9213 14.9056 27.8001 16.0343C28.6788 17.163 29.2988 18.471 29.6163 19.8657C29.6734 20.1183 29.8286 20.3379 30.0476 20.4762C30.2667 20.6144 30.5316 20.66 30.7843 20.6028C31.0369 20.5457 31.2565 20.3905 31.3947 20.1715C31.533 19.9525 31.5785 19.6875 31.5214 19.4349C31.1408 17.7608 30.3971 16.1908 29.3428 14.8358C28.2885 13.4809 26.9493 12.3742 25.4201 11.594C23.8909 10.8137 22.2089 10.379 20.4931 10.3206C18.7773 10.2622 17.0696 10.5814 15.4908 11.2558C13.912 11.9302 12.5007 12.9432 11.3566 14.2233C10.2126 15.5033 9.36376 17.0191 8.87018 18.6634C8.37661 20.3077 8.25034 22.0404 8.50032 23.7389C8.7503 25.4374 9.37041 27.0602 10.3168 28.4926C10.4058 28.6273 10.5268 28.7379 10.669 28.8143C10.8113 28.8907 10.9703 28.9306 11.1317 28.9305ZM20.0924 7.5662C20.3514 7.5662 20.5998 7.46332 20.7829 7.28018C20.9661 7.09703 21.0689 6.84864 21.0689 6.58964V2.91464C21.0689 2.65564 20.9661 2.40725 20.7829 2.22411C20.5998 2.04097 20.3514 1.93808 20.0924 1.93808C19.8334 1.93808 19.585 2.04097 19.4018 2.22411C19.2187 2.40725 19.1158 2.65564 19.1158 2.91464V6.58964C19.1158 6.84864 19.2187 7.09703 19.4018 7.28018C19.585 7.46332 19.8334 7.5662 20.0924 7.5662ZM11.5263 9.14658C11.6558 9.37088 11.8691 9.53456 12.1193 9.6016C12.3694 9.66864 12.636 9.63355 12.8603 9.50405C13.0846 9.37455 13.2483 9.16124 13.3153 8.91106C13.3824 8.66088 13.3473 8.39432 13.2178 8.17001L11.3802 4.9874C11.2498 4.76493 11.0366 4.60308 10.7873 4.53716C10.538 4.47125 10.2727 4.50662 10.0494 4.63557C9.82609 4.76451 9.66283 4.97655 9.59527 5.22542C9.5277 5.47429 9.56131 5.73978 9.68877 5.96396L11.5263 9.14658ZM3.04941 13.3183L6.23193 15.1562C6.34304 15.2214 6.46593 15.2639 6.59353 15.2813C6.72113 15.2988 6.85092 15.2908 6.97544 15.2579C7.09995 15.225 7.21672 15.1678 7.31902 15.0895C7.42133 15.0113 7.50715 14.9136 7.57155 14.8021C7.63594 14.6905 7.67764 14.5674 7.69424 14.4397C7.71084 14.3119 7.70202 14.1822 7.66827 14.0579C7.63453 13.9336 7.57653 13.8172 7.49762 13.7154C7.41872 13.6137 7.32046 13.5285 7.2085 13.4648L4.02598 11.6268C3.91487 11.5617 3.79198 11.5192 3.66438 11.5018C3.53678 11.4843 3.40699 11.4923 3.28247 11.5252C3.15796 11.5581 3.04119 11.6153 2.93889 11.6936C2.83658 11.7718 2.75076 11.8695 2.68636 11.981C2.62197 12.0926 2.58027 12.2157 2.56367 12.3434C2.54707 12.4712 2.55589 12.6009 2.58964 12.7252C2.62338 12.8495 2.68138 12.9659 2.76029 13.0676C2.83919 13.1694 2.93746 13.2546 3.04941 13.3183ZM5.62813 22.0305C5.62813 21.7715 5.52524 21.5231 5.3421 21.3399C5.15896 21.1568 4.91056 21.0539 4.65156 21.0539H0.976562C0.717562 21.0539 0.46917 21.1568 0.286029 21.3399C0.102888 21.5231 0 21.7715 0 22.0305C0 22.2895 0.102888 22.5379 0.286029 22.721C0.46917 22.9041 0.717562 23.007 0.976562 23.007H4.65156C4.91056 23.007 5.15896 22.9041 5.3421 22.721C5.52524 22.5379 5.62813 22.2895 5.62813 22.0305ZM7.56602 29.2626C7.50189 29.1515 7.41652 29.0542 7.31477 28.9761C7.21302 28.898 7.09689 28.8408 6.973 28.8076C6.84912 28.7744 6.71991 28.7659 6.59276 28.7827C6.46561 28.7994 6.343 28.841 6.23193 28.9052L3.04941 30.7427C2.93746 30.8063 2.83919 30.8915 2.76029 30.9933C2.68138 31.0951 2.62338 31.2115 2.58964 31.3357C2.55589 31.46 2.54707 31.5898 2.56367 31.7175C2.58027 31.8452 2.62197 31.9684 2.68636 32.0799C2.75076 32.1914 2.83658 32.2891 2.93889 32.3674C3.04119 32.4456 3.15796 32.5028 3.28247 32.5357C3.40699 32.5687 3.53678 32.5766 3.66438 32.5592C3.79198 32.5417 3.91487 32.4992 4.02598 32.4341L7.2085 30.5967C7.31957 30.5326 7.41694 30.4472 7.49502 30.3454C7.5731 30.2437 7.63038 30.1276 7.66358 30.0037C7.69678 29.8798 7.70525 29.7506 7.68851 29.6234C7.67177 29.4963 7.63015 29.3737 7.56602 29.2626ZM33.4656 15.2867C33.6368 15.2867 33.8049 15.2415 33.9529 15.1558L37.1355 13.3183C37.2475 13.2546 37.3458 13.1694 37.4247 13.0676C37.5036 12.9659 37.5616 12.8495 37.5953 12.7252C37.6291 12.6009 37.6379 12.4712 37.6213 12.3434C37.6047 12.2157 37.563 12.0926 37.4986 11.981C37.4342 11.8695 37.3484 11.7718 37.2461 11.6936C37.1438 11.6153 37.027 11.5581 36.9025 11.5252C36.778 11.4923 36.6482 11.4843 36.5206 11.5018C36.393 11.5192 36.2701 11.5617 36.159 11.6268L32.9764 13.4643C32.7901 13.5719 32.6445 13.7379 32.5622 13.9366C32.48 14.1353 32.4656 14.3556 32.5214 14.5634C32.5771 14.7711 32.6999 14.9546 32.8707 15.0854C33.0414 15.2162 33.2505 15.287 33.4656 15.2867ZM27.3242 9.504C27.5485 9.63349 27.8151 9.66858 28.0652 9.60156C28.3154 9.53453 28.5287 9.37087 28.6582 9.14658L30.4956 5.96396C30.6231 5.73978 30.6567 5.47429 30.5891 5.22542C30.5215 4.97655 30.3583 4.76451 30.135 4.63557C29.9116 4.50662 29.6464 4.47125 29.3971 4.53716C29.1477 4.60308 28.9346 4.76493 28.8042 4.9874L26.9668 8.17001C26.8373 8.39431 26.8022 8.66086 26.8692 8.91103C26.9363 9.1612 27.0999 9.37449 27.3242 9.504ZM44.0811 32.3108C44.5335 30.1614 44.2135 27.9213 43.1774 25.9845C42.1413 24.0477 40.4553 22.5383 38.4162 21.7218C36.377 20.9053 34.1153 20.834 32.0288 21.5205C29.9422 22.2069 28.1646 23.6072 27.0086 25.4749C25.2141 24.7576 23.21 24.7723 21.4263 25.5158C19.6426 26.2594 18.2213 27.6724 17.4676 29.4518C16.1882 29.2309 14.8768 29.2782 13.6166 29.5907C12.3564 29.9031 11.1749 30.474 10.1469 31.2671C9.1189 32.0602 8.26691 33.0582 7.6449 34.1979C7.02289 35.3376 6.64443 36.594 6.53351 37.8876C6.4226 39.1813 6.58165 40.4838 7.00057 41.7127C7.4195 42.9417 8.08917 44.0701 8.96713 45.0266C9.8451 45.9832 10.9122 46.7468 12.1008 47.2693C13.2894 47.7917 14.5736 48.0615 15.872 48.0616H41.9853C43.9276 48.0612 45.8037 47.3555 47.2648 46.0757C48.7258 44.7959 49.6725 43.0291 49.9287 41.1037C50.1848 39.1784 49.7332 37.2255 48.6576 35.6082C47.582 33.9908 45.9557 32.8191 44.0811 32.3108ZM41.9849 46.1088H15.8716C14.8138 46.108 13.7684 45.881 12.8055 45.4431C11.8425 45.0051 10.9844 44.3664 10.2886 43.5696C9.5928 42.7729 9.07539 41.8365 8.7711 40.8234C8.46681 39.8103 8.38266 38.7439 8.52429 37.6956C8.66593 36.6473 9.03008 35.6414 9.59231 34.7454C10.1546 33.8494 10.9019 33.0839 11.7842 32.5004C12.6665 31.9169 13.6634 31.5287 14.708 31.362C15.7526 31.1953 16.8207 31.2539 17.8408 31.5339C18.0895 31.6022 18.3551 31.5694 18.5796 31.4426C18.8042 31.3158 18.9695 31.1053 19.0395 30.8571C19.2629 30.0653 19.6634 29.3346 20.2105 28.7202C20.7577 28.1058 21.4372 27.6237 22.1979 27.3102C22.9586 26.9968 23.7806 26.8603 24.6018 26.911C25.423 26.9617 26.2219 27.1982 26.9383 27.6028C27.0545 27.6686 27.183 27.7098 27.3157 27.7239C27.4485 27.7381 27.5828 27.7249 27.7102 27.6851C27.8377 27.6453 27.9556 27.5798 28.0568 27.4926C28.1579 27.4054 28.2401 27.2984 28.2982 27.1782C29.1165 25.4884 30.5479 24.1739 32.3011 23.502C34.0542 22.8302 35.9975 22.8515 37.7355 23.5617C39.4735 24.2718 40.8757 25.6175 41.6567 27.3248C42.4377 29.0322 42.5389 30.9729 41.9396 32.7522C41.8933 32.8895 41.878 33.0353 41.895 33.1791C41.9119 33.3229 41.9606 33.4612 42.0376 33.5839C42.1146 33.7066 42.2179 33.8106 42.3401 33.8884C42.4622 33.9663 42.6001 34.0159 42.7438 34.0339C44.2737 34.2267 45.6725 34.9952 46.6556 36.1831C47.6387 37.371 48.1321 38.8889 48.0353 40.4278C47.9386 41.9667 47.259 43.4108 46.1349 44.4663C45.0109 45.5217 43.5268 46.1091 41.9849 46.1088Z" fill="#76BC21"/>
</g>
<defs>
<clipPath id="clip0_2531_9000">
<rect width="50" height="50" fill="white"/>
</clipPath>
</defs>
</svg>
